<?xml version="1.0" encoding="utf-8"?>
<!-- Generator: Adobe Illustrator 18.1.0, SVG Export Plug-In . SVG Version: 6.00 Build 0)  -->
<svg version="1.1" id="Layer_1" xmlns="http://www.w3.org/2000/svg" xmlns:xlink="http://www.w3.org/1999/xlink" x="0px" y="0px"
	 viewBox="0 0 140 140" enable-background="new 0 0 140 140" xml:space="preserve">
<rect fill="#DEDEDE" width="140" height="140"/>
<g>
	<path fill="#8A8A8A" d="M47.1,79.2H35.7l-2.2,7h-6.6l11.1-32.4h6.7l11.1,32.4h-6.6L47.1,79.2z M37.3,74.1h8.2l-4-12.7h-0.1
		L37.3,74.1z"/>
	<path fill="#8A8A8A" d="M69.8,77.5l0.4,1.8h0.1l0.4-1.7l7.1-23.8h6.9l-11,32.4H67L56,53.8h6.9L69.8,77.5z"/>
	<path fill="#8A8A8A" d="M102.1,79.2H90.7l-2.2,7h-6.6l11.1-32.4h6.7l11.1,32.4h-6.6L102.1,79.2z M92.3,74.1h8.2l-4-12.7h-0.1
		L92.3,74.1z"/>
</g>
</svg>
