<?xml version="1.0" encoding="utf-8"?>
<!-- Generator: Adobe Illustrator 16.0.0, SVG Export Plug-In . SVG Version: 6.00 Build 0)  -->
<!DOCTYPE svg PUBLIC "-//W3C//DTD SVG 1.1//EN" "http://www.w3.org/Graphics/SVG/1.1/DTD/svg11.dtd">
<svg version="1.1" id="Layer_1" xmlns="http://www.w3.org/2000/svg" xmlns:xlink="http://www.w3.org/1999/xlink" x="0px" y="0px"
	 width="105px" height="121px" viewBox="0 0 105 121" enable-background="new 0 0 105 121" xml:space="preserve">
<g>
	<g>
		<g>
			<path id="SVGID_1_" fill="#0EAB63" d="M103.078,38.795l-5.135,8.895L96.6,46.015l4.246-7.355
				c3.241-5.614,1.807-10.504-3.66-13.66L60.813,4.001c-5.403-3.122-10.601-1.638-13.66,3.66L27.906,41h-2.311L45.921,5.795
				c3.03-5.254,9.772-7.063,15.027-4.027l38.104,22C104.307,26.805,106.107,33.542,103.078,38.795L103.078,38.795z M6.652,77.813
				l-2.499,4.328C0.909,87.757,2.362,92.652,7.813,95.8l36.374,20.999c5.574,3.221,10.39,2.003,13.661-3.66L77.557,79h2.312
				L59.08,115.005c-3.03,5.254-9.773,7.063-15.026,4.027L5.947,97.031c-5.254-3.036-7.056-9.773-4.025-15.027l3.162-5.479
				L6.652,77.813L6.652,77.813z"/>
		</g>
	</g>
	<g>
		<g>
			<path id="SVGID_3_" fill="#0EAB63" d="M99.053,97.031l-38.105,22.001c-5.252,3.036-11.995,1.227-15.025-4.027L25.133,79h2.31
				l19.709,34.139c3.27,5.663,8.086,6.881,13.661,3.66L97.188,95.8c5.449-3.147,6.903-8.043,3.66-13.659l-2.521-4.367l1.576-1.271
				l3.177,5.503C106.107,87.258,104.307,93.995,99.053,97.031L99.053,97.031z"/>
		</g>
		<g>
			<path id="SVGID_4_" fill="#0EAB63" d="M77.096,41L57.848,7.661c-3.06-5.297-8.255-6.782-13.661-3.66L7.813,25
				c-5.467,3.156-6.901,8.046-3.66,13.66l4.185,7.249l-1.402,1.57l-5.014-8.684c-3.03-5.253-1.229-11.99,4.025-15.027l38.104-22
				c5.254-3.037,11.997-1.227,15.027,4.027L79.404,41H77.096L77.096,41z"/>
		</g>
		<g>
			<defs>
				<path id="SVGID_2_" d="M99.053,97.031l-38.105,22.001c-5.252,3.036-11.995,1.227-15.025-4.027L25.133,79h2.31l19.709,34.139
					c3.27,5.663,8.086,6.881,13.661,3.66L97.188,95.8c5.449-3.147,6.903-8.043,3.66-13.659l-2.521-4.367l1.576-1.271l3.177,5.503
					C106.107,87.258,104.307,93.995,99.053,97.031L99.053,97.031z"/>
			</defs>
			<clipPath id="SVGID_5_">
				<use xlink:href="#SVGID_2_"  overflow="visible"/>
			</clipPath>
		</g>
	</g>
	<g>
		<g>
			<path id="SVGID_7_" fill="#078E61" d="M28.359,56h-2.447l-2.563-4.067h-1.183V56h-2.05v-9.953h2.05v3.985h0.937l2.433-3.985
				h2.501l-3.069,4.709L28.359,56L28.359,56z M36.506,56l-0.691-2.05h-3.596L31.536,56h-2.18l3.705-9.953h1.899L38.686,56H36.506
				L36.506,56z M34.01,48.563l-1.237,3.725h2.489L34.01,48.563L34.01,48.563z M46.715,56v-8.292H42.73V56h-2.05v-9.953h8.094V56
				H46.715L46.715,56z M55.9,54.257l-0.28,0.54c-0.517,0.896-1.304,1.347-2.365,1.347l-0.718-0.027l-0.021-1.649
				c0.109,0.02,0.288,0.027,0.534,0.027c0.287,0,0.519-0.05,0.694-0.149c0.175-0.1,0.322-0.284,0.439-0.554l0.254-0.649
				l-3.494-7.096h2.208l2.201,4.703l1.812-4.703h2.216L55.9,54.257L55.9,54.257z M25.073,71.058l-0.28,0.54
				c-0.517,0.896-1.304,1.348-2.365,1.348l-0.718-0.027l-0.021-1.649c0.109,0.021,0.288,0.027,0.534,0.027
				c0.287,0,0.519-0.05,0.694-0.149c0.175-0.1,0.322-0.283,0.439-0.554l0.254-0.649l-3.494-7.096h2.208l2.201,4.703l1.812-4.703
				h2.216L25.073,71.058L25.073,71.058z M67.129,49.424c-0.05-0.643-0.229-1.109-0.537-1.398c-0.307-0.29-0.773-0.434-1.404-0.434
				c-0.683,0-1.194,0.245-1.533,0.734c-0.34,0.49-0.516,1.25-0.522,2.28v0.752c0,1.075,0.162,1.861,0.488,2.357
				c0.325,0.498,0.839,0.746,1.541,0.746c0.633,0,1.106-0.145,1.419-0.434c0.313-0.29,0.49-0.738,0.536-1.343h2.051
				c-0.077,1.072-0.474,1.914-1.187,2.529c-0.713,0.616-1.653,0.924-2.819,0.924c-1.274,0-2.28-0.431-3.013-1.289
				c-0.729-0.859-1.097-2.039-1.097-3.538v-0.609c0-0.956,0.169-1.8,0.507-2.529s0.818-1.289,1.445-1.677
				c0.627-0.391,1.354-0.585,2.184-0.585c1.148,0,2.074,0.307,2.775,0.922c0.702,0.615,1.107,1.48,1.219,2.592H67.129L67.129,49.424
				z M75.809,47.708V56h-2.052v-8.292h-3.008v-1.661h8.106v1.661H75.809L75.809,47.708z M86.564,56l-0.689-2.05h-3.596L81.596,56
				h-2.182l3.705-9.953h1.9L88.745,56H86.564L86.564,56z M84.068,48.563l-1.236,3.725h2.488L84.068,48.563L84.068,48.563z
				 M40.2,72.8h-2.447l-2.563-4.065h-1.183V72.8h-2.05v-9.952h2.05v3.984h0.937l2.433-3.984h2.502l-3.069,4.709L40.2,72.8L40.2,72.8
				z M48.354,72.8v-6.61L44.37,72.8h-2.052v-9.952h2.052v6.623l3.985-6.623h2.057V72.8H48.354L48.354,72.8z M53.575,72.8v-9.952
				h2.058v8.307h2.764v-8.307h2.057v8.307h2.734v-8.307h2.051V72.8H53.575L53.575,72.8z M75.081,71.152V72.8h-6.674v-9.952h6.659
				v1.66h-4.607v2.373h3.938v1.592h-3.938v2.682h4.622V71.152z M83.732,72.8v-4.266h-3.998V72.8h-2.051v-9.952h2.051v4.033h3.998
				v-4.033h2.051V72.8H83.732L83.732,72.8z M89.104,72.8v-9.952h2.051V72.8H89.104L89.104,72.8z"/>
		</g>
	</g>
</g>
</svg>
