<?xml version="1.0" encoding="utf-8"?>
<!-- Generator: Adobe Illustrator 19.0.0, SVG Export Plug-In . SVG Version: 6.00 Build 0)  -->
<svg version="1.1" id="Layer_1" xmlns="http://www.w3.org/2000/svg" xmlns:xlink="http://www.w3.org/1999/xlink" x="0px" y="0px"
	 viewBox="0 0 100 100" style="enable-background:new 0 0 100 100;" xml:space="preserve">
<style type="text/css">
	.st0{fill:#FFFFFF;}
</style>
<g>
	<path class="st0" d="M22.2,61.1c0-7.4,0-14.8,0-22.2c0.1-0.6,0.2-1.3,0.3-1.9c0.4-7.2,5-12.6,11.9-14.1c1.5-0.3,3-0.5,4.5-0.7
		c7.4,0,14.8,0,22.2,0c0.6,0.1,1.3,0.2,1.9,0.3c7.1,0.4,12.3,4.8,14,11.7c0.4,1.6,0.5,3.3,0.8,5c0,7.1,0,14.2,0,21.4
		c-0.1,0.8-0.2,1.6-0.3,2.5c-0.4,7-4.8,12.3-11.6,14c-1.7,0.4-3.5,0.5-5.3,0.8c-7.1,0-14.2,0-21.4,0c-0.7-0.1-1.4-0.2-2.2-0.3
		c-7.2-0.4-12.7-5.1-14.1-12C22.6,64,22.5,62.6,22.2,61.1z M49.8,72.5C49.8,72.5,49.8,72.5,49.8,72.5c4.1,0,8.2,0.1,12.3,0
		c3-0.1,5.8-1.1,7.9-3.5c1.7-2,2.4-4.4,2.4-6.9c0.1-7.9,0.2-15.9,0-23.9c-0.1-6.7-4-10.5-10.6-10.7c-6.8-0.2-13.6-0.2-20.4-0.2
		c-2.1,0-4.2,0.2-6.2,0.6c-4.7,1-7.6,4.6-7.7,9.8c-0.2,8.1-0.2,16.2,0,24.3c0.1,6.5,4,10.3,10.5,10.5C42,72.6,45.9,72.5,49.8,72.5z"
		/>
	<path class="st0" d="M35.8,49.9c0-8,6.4-14.2,14.3-14.2c7.9,0.1,14.2,6.4,14.1,14.4C64.1,58,57.8,64.2,50,64.2
		C42,64.2,35.7,57.9,35.8,49.9z M49.9,59.2c5.2,0,9.2-4,9.2-9.2c0-5.1-4-9.2-9.1-9.2c-5.2,0-9.3,4-9.3,9.1
		C40.8,55.1,44.8,59.2,49.9,59.2z"/>
	<path class="st0" d="M68.1,35.1c0,1.9-1.4,3.4-3.3,3.4c-1.8,0-3.4-1.5-3.4-3.3c0-1.8,1.5-3.3,3.3-3.4
		C66.7,31.9,68.1,33.2,68.1,35.1z"/>
</g>
</svg>
