<?xml version="1.0" encoding="utf-8"?>
<!-- Generator: Adobe Illustrator 19.0.0, SVG Export Plug-In . SVG Version: 6.00 Build 0)  -->
<svg version="1.1" id="Layer_1" xmlns="http://www.w3.org/2000/svg" xmlns:xlink="http://www.w3.org/1999/xlink" x="0px" y="0px"
	 viewBox="0 0 100 100" style="enable-background:new 0 0 100 100;" xml:space="preserve">
<style type="text/css">
	.st0{fill:#FFFFFF;}
</style>
<path id="XMLID_2_" class="st0" d="M27.8,69c5.2,0.5,9.9-0.8,14.1-4c-2-0.1-3.9-0.8-5.5-2c-1.6-1.2-2.7-2.8-3.4-4.7
	c0.7,0,1.4,0,2.1,0c0.7,0,1.4-0.1,2-0.3c-2.8-0.8-5-2.3-6.4-4.9c-0.9-1.5-1.3-3.5-1.2-4.8c0.7,0.3,1.3,0.6,2,0.7
	c0.7,0.2,1.4,0.3,2.1,0.4c-4.3-3.6-5.2-7.9-2.9-13.1c5.3,6.3,12,9.7,20.1,10.2c-0.1-0.6-0.1-1.2-0.2-1.7c-0.1-3,0.9-5.6,3.1-7.6
	c2.4-2.3,5.4-3,8.6-2.4c1.9,0.3,3.5,1.2,4.8,2.6c0.2,0.2,0.4,0.3,0.7,0.2c1.8-0.4,3.6-1,5.2-2c0.2-0.1,0.3-0.2,0.6-0.3
	c-0.8,2.3-2.1,4-4,5.3c1.8-0.1,3.6-0.7,5.3-1.4c-0.9,1.4-1.9,2.5-3,3.5c-0.5,0.4-1,0.8-1.5,1.2c-0.3,0.2-0.4,0.4-0.3,0.7
	c0.1,2.8-0.3,5.5-1,8.2c-0.6,2.3-1.6,4.5-2.7,6.6c-1.3,2.2-2.8,4.3-4.7,6.1c-2.5,2.5-5.3,4.4-8.6,5.7c-3.1,1.2-6.2,1.9-9.5,2
	c-2.3,0.1-4.6-0.1-6.9-0.6c-2.3-0.5-4.5-1.2-6.6-2.3c-0.9-0.4-1.7-0.9-2.6-1.4C27.8,69,27.8,69,27.8,69z"/>
</svg>
