<?xml version="1.0" encoding="utf-8"?>
<!-- Generator: Adobe Illustrator 18.1.0, SVG Export Plug-In . SVG Version: 6.00 Build 0)  -->
<svg version="1.1" id="Layer_1" xmlns="http://www.w3.org/2000/svg" xmlns:xlink="http://www.w3.org/1999/xlink" x="0px" y="0px"
	 viewBox="0 0 280 160" enable-background="new 0 0 280 160" xml:space="preserve">
<g>
	<path fill="#F6A500" d="M485.5,92.6c-1.4-1-3.3-1.8-6.1-1.8c-2.9,0-5.3,0.6-5.3,3.7c0,5.5,10.7,3.5,10.7,15.2
		c0,10.7-7.1,13.5-13.4,13.5c-2.8,0-6.1-0.9-8.5-2l1.7-7.9c1.5,1.3,4.4,2.2,6.8,2.2c2.3,0,5.9-0.6,5.9-4.6c0-6.2-10.7-3.9-10.7-14.9
		c0-10,6.2-13,12.3-13c3.4,0,6.6,0.5,8.4,1.7L485.5,92.6"/>
	<path fill="#F6A500" d="M502.9,103.5c0-0.7,0.1-1.2,0.1-1.6c0-2.5-1.3-4-3.4-4c-2.3,0-4,2-4.6,5.5L502.9,103.5 M506.9,122
		c-2.5,0.9-4.9,1.3-7.4,1.3c-8.1,0-12.3-4.8-12.3-13.9c0-10.6,5.4-18.5,12.7-18.5c6,0,9.8,4.4,9.8,11.3c0,2.3-0.3,4.5-0.9,7.6h-14.4
		c0,0.5-0.1,0.7-0.1,1c0,3.6,2.2,5.4,6.4,5.4c2.6,0,4.9-0.6,7.5-2L506.9,122z"/>
	<path fill="#F6A500" d="M528.2,121.9c-1.5,0.7-3.5,1.2-6.4,1.2c-6.3,0-10.3-6.3-10.3-14c0-10.1,5.7-18.1,14-18.1
		c1.8,0,4.6,0.8,6.8,2.1l-1.6,7.4c-1.6-1-3.2-1.7-4.8-1.7c-3.9,0-6.6,3.6-6.6,9.9c0,3.7,2,6.7,5.2,6.7c1.9,0,3.2-0.4,4.8-1.3
		L528.2,121.9"/>
	<path fill="#F6A500" d="M555.3,114.2c-0.4,2.7-0.7,5.3-0.9,8h-7l0.6-5h-0.1c-2.2,3.4-4.4,5.7-8.4,5.7c-4.4,0-6.8-4.6-6.8-10.6
		c0-2.1,0.1-3.2,0.6-6.5l2-14.3h7.8l-2.1,14.4c-0.2,1.5-0.5,3.1-0.5,4.7c0,1.8,0.8,3.6,2.9,3.5c3.2,0,5.1-3.9,5.6-8.4l2.1-14.2h7.5
		L555.3,114.2"/>
	<path fill="#F6A500" d="M574.9,91.2c-0.2-0.1-0.5-0.1-0.7-0.1c-2.4,0-3.7,1.4-5.9,5l0.6-4.7h-6.6l-4.4,31h7.2
		c2.6-19,3.3-22.2,6.8-22.2c0.2,0,0.2,0,0.5,0c0.7-3.7,1.5-6.5,2.8-9L574.9,91.2"/>
	<path fill="#F6A500" d="M589.1,103.5c0-0.7,0.1-1.2,0.1-1.6c0-2.5-1.3-4-3.4-4c-2.3,0-4,2-4.6,5.5L589.1,103.5 M593.2,122
		c-2.5,0.9-4.9,1.3-7.4,1.3c-8.1,0-12.3-4.8-12.3-13.9c0-10.6,5.4-18.5,12.7-18.5c6,0,9.8,4.4,9.8,11.3c0,2.3-0.3,4.5-0.9,7.6h-14.4
		c0,0.5-0.1,0.7-0.1,1c0,3.6,2.2,5.4,6.4,5.4c2.6,0,4.9-0.6,7.5-2L593.2,122z"/>
	<path fill="#F6A500" d="M622.9,85.5l-1.2,8.3c-2.6-1.5-4.5-2.1-6.5-2.1c-5.4,0-9.2,5.9-9.2,14.3c0,5.8,2.5,9.3,6.8,9.3
		c1.8,0,3.8-0.6,6.2-2l-1.3,8.7c-2.7,0.8-4.4,1.1-6.4,1.1c-7.8,0-12.7-6.3-12.7-16.5c0-13.6,6.7-23.2,16.3-23.2
		c1.2,0,2.3,0.2,3.3,0.4l3,0.8C622.1,85.1,622.3,85.2,622.9,85.5"/>
	<path fill="#F6A500" d="M645.3,104.9c0-7.8-3.9-13.9-11.1-13.9c-8.3,0-13.8,7.4-13.8,18.3c0,7.8,3.2,14.2,11.1,14.2
		C639.5,123.4,645.3,117.8,645.3,104.9 M637.7,104.7c0,7-2.2,11.2-5.6,11.2c-2.5,0.1-4-2.7-4-6.9c0-4.9,2.2-10.5,5.8-10.5
		C636.7,98.5,637.7,101.5,637.7,104.7z"/>
	<path fill="#F6A500" d="M658.9,114.8c3.4,0,5.8-4.3,5.8-10.4c0-4-1.3-6.1-3.8-6.1c-3.3,0-5.6,4.3-5.6,10.4
		C655.2,112.7,656.4,114.8,658.9,114.8 M669.6,122.1h-6.8l0.4-3c-2,2.4-4.1,3.4-6.7,3.4c-5.3,0-8.8-5.1-8.8-12.9
		c0-10.3,5.4-19,11.8-19c2.8,0,5,1.3,6.9,4.3L668,84h7.1L669.6,122.1z"/>
	<path fill="#F6A500" d="M690.3,103.5c0-0.7,0.1-1.2,0.1-1.6c0-2.5-1.3-4-3.4-4c-2.3,0-4,2-4.6,5.5L690.3,103.5 M694.3,122
		c-2.5,0.9-4.9,1.3-7.4,1.3c-8.1,0-12.3-4.8-12.3-13.9c0-10.6,5.4-18.5,12.7-18.5c6,0,9.8,4.4,9.8,11.3c0,2.3-0.2,4.5-0.9,7.6h-14.4
		c0,0.5-0.1,0.7-0.1,1c0,3.6,2.2,5.4,6.4,5.4c2.6,0,4.9-0.6,7.5-2L694.3,122z"/>
	<path fill="#F6A500" d="M709.3,121.8h-1.1v-5.2h0l-1,5.2H706l-1-5.2h0v5.2h-1.1v-6.2h1.7l1,4.9h0l1-4.9h1.7V121.8 M701.6,121.8
		h-1.2v-5.1h-1.7v-1.1h4.6v1.1h-1.7V121.8z"/>
	<polyline fill="#E20613" points="495.5,75.5 487.8,75.5 492.2,46.2 482.3,75.5 477,75.5 476.3,46.4 471.6,75.5 464.4,75.5 
		470.4,37.4 481.6,37.4 481.9,61 489.5,37.4 501.5,37.4 495.5,75.5 	"/>
	<path fill="#E20613" d="M521.1,75.5h-6.4l0.1-3.2c-2,2.6-4.6,3.8-8.1,3.8c-4.2,0-7.1-3.5-7.1-8.4c0-7.6,5-12,13.6-12
		c0.9,0,2,0.1,3.2,0.2c0.2-1,0.3-1.5,0.3-2c0-2-1.3-2.8-5-2.8c-2.2,0-4.7,0.3-6.5,0.9l-1.1,0.3l-0.7,0.2l1.1-7
		c3.9-1.2,6.4-1.7,9.3-1.7c6.7,0,10.2,3.1,10.2,9.1c0,1.5-0.1,2.7-0.6,6.1l-1.6,11l-0.3,2l-0.2,1.6l-0.1,1.1L521.1,75.5 M515.5,61.7
		c-0.8-0.1-1.2-0.1-1.7-0.1c-4.4,0-6.6,1.6-6.6,4.7c0,1.9,1.1,3.2,2.8,3.2C513.1,69.4,515.4,66.3,515.5,61.7z"/>
	<path fill="#E20613" d="M526.7,54.3c0,3.9,1.8,6.6,5.9,8.6c3.1,1.6,3.6,2,3.6,3.4c0,1.9-1.4,2.8-4.4,2.8c-2.3,0-4.5-0.4-6.9-1.2
		l-1.1,7.1l0.4,0.1l1.4,0.3c0.5,0.1,1.1,0.2,2,0.3c1.9,0.2,3.3,0.3,4.3,0.3c8.1,0,11.9-3.3,11.9-10.3c0-4.2-1.6-6.7-5.5-8.6
		c-3.2-1.5-3.6-1.9-3.6-3.3c0-1.7,1.3-2.5,3.8-2.5c1.5,0,3.6,0.2,5.6,0.5l1.1-7.2c-2-0.3-5-0.6-6.8-0.6
		C529.6,43.8,526.6,48.6,526.7,54.3"/>
	<path fill="#E20613" d="M557.3,75.1c-2.1,0.7-3.8,1-5.6,1c-4,0-6.1-2.4-6.1-6.8c0-0.9,0.1-1.8,0.2-2.8l0.5-3l0.4-2.5l3.4-21.1h7.7
		l-0.9,4.6h4l-1.1,7.5h-4L553.7,65c-0.1,0.6-0.1,1-0.1,1.3c0,1.6,0.8,2.3,2.6,2.3c0.9,0,1.6-0.1,2.1-0.3L557.3,75.1"/>
	<path fill="#E20613" d="M577.5,56.4c0-0.6,0.1-1.2,0.1-1.6c0-2.5-1.4-4-3.7-4c-2.5,0-4.2,2-4.9,5.6L577.5,56.4 M581.9,74.8
		c-2.7,0.8-5.2,1.3-8,1.2c-8.7,0-13.2-4.8-13.2-13.9c0-10.6,5.8-18.5,13.6-18.5c6.4,0,10.5,4.4,10.5,11.3c0,2.3-0.3,4.5-1,7.6h-15.4
		c-0.1,0.5-0.1,0.7-0.1,1c0,3.6,2.3,5.4,6.8,5.4c2.8,0,5.3-0.6,8.1-2L581.9,74.8z"/>
	<path fill="#E20613" d="M603.8,44.2c-0.2,0-0.5-0.1-0.8-0.1c-2.6,0-4,1.4-6.4,5l0.7-4.7h-7l-4.8,31h7.8c2.8-18.9,3.5-22.2,7.2-22.2
		c0.2,0,0.2,0,0.6,0c0.7-3.7,1.6-6.5,2.9-9L603.8,44.2"/>
	<path fill="#E20613" d="M629.5,38.6l-1.3,8.3c-2.8-1.5-4.8-2-7-2c-5.8,0-9.9,5.9-9.9,14.3c0,5.8,2.7,9.3,7.3,9.3c1.9,0,4-0.6,6.6-2
		l-1.4,8.7c-2.8,0.8-4.7,1.1-6.9,1.1c-8.4,0-13.6-6.3-13.6-16.4c0-13.6,7.2-23.2,17.5-23.2c1.3,0,2.5,0.1,3.5,0.4l3.2,0.8
		C628.6,38.2,628.8,38.3,629.5,38.6"/>
	<path fill="#E20613" d="M648.5,75.5h-6.4l0.2-3.2c-2,2.6-4.6,3.8-8.1,3.8c-4.2,0-7.1-3.5-7.1-8.4c0-7.6,5-12,13.7-12
		c0.9,0,2,0.1,3.2,0.2c0.2-1,0.3-1.5,0.3-2c0-2-1.3-2.8-5-2.8c-2.2,0-4.7,0.3-6.4,0.9l-1.1,0.3l-0.7,0.2l1.1-7
		c3.9-1.2,6.4-1.7,9.3-1.7c6.7,0,10.2,3.1,10.2,9.1c0,1.5-0.1,2.7-0.6,6.1l-1.6,11l-0.2,2l-0.2,1.6l-0.1,1.1L648.5,75.5 M642.9,61.7
		c-0.8-0.1-1.2-0.1-1.7-0.1c-4.4,0-6.6,1.6-6.6,4.7c0,1.9,1.1,3.2,2.8,3.2C640.5,69.4,642.7,66.3,642.9,61.7z"/>
	<path fill="#E20613" d="M670.2,44.2c-0.2,0-0.5-0.1-0.8-0.1c-2.5,0-4,1.4-6.4,5l0.7-4.7h-7l-4.7,31h7.8c2.8-18.9,3.5-22.2,7.2-22.2
		c0.2,0,0.2,0,0.5,0c0.7-3.7,1.7-6.5,3-9L670.2,44.2"/>
	<path fill="#E20613" d="M679.9,68.2c3.6,0,6.2-4.3,6.2-10.4c0-3.9-1.4-6.1-4.1-6.1c-3.5,0-6,4.3-6,10.4
		C675.9,66.1,677.3,68.2,679.9,68.2 M691.3,75.5H684l0.4-3c-2.1,2.4-4.3,3.4-7.2,3.4c-5.7,0-9.4-5.1-9.4-12.9c0-10.3,5.8-19,12.6-19
		c3,0,5.3,1.3,7.4,4.2l1.7-10.9h7.7L691.3,75.5z"/>
	<path fill="#E20613" d="M699.9,70.7h0.5c0.2,0,0.4,0,0.6-0.1c0.2-0.1,0.2-0.3,0.2-0.5c0-0.2-0.1-0.4-0.2-0.4
		c-0.1-0.1-0.4-0.1-0.6-0.1h-0.5V70.7 M699.9,73.1h-0.9v-4.3h1.7c0.4,0,0.7,0,1,0.2c0.3,0.2,0.5,0.6,0.5,1.1c0,0.5-0.3,0.9-0.7,1.1
		l0.7,1.9h-1.1l-0.6-1.7h-0.7V73.1z M700.5,74.7c1.9,0,3.5-1.7,3.5-3.7c0-2-1.6-3.7-3.5-3.7c-1.9,0-3.5,1.7-3.5,3.7
		C697,73,698.6,74.7,700.5,74.7z M695.9,71c0-2.7,2.1-4.9,4.6-4.9c2.6,0,4.6,2.2,4.6,4.9c0,2.7-2.1,4.9-4.6,4.9
		C697.9,75.9,695.9,73.7,695.9,71z"/>
</g>
<g>
	<g>
		<g>
			<circle fill="#E30613" cx="102.9" cy="80.9" r="55.3"/>
			<g>
				<path fill="#F7A600" d="M177.1,25.6c-14.3,0-27.3,5.4-37.1,14.3c-2,1.8-3.9,3.8-5.6,5.9h11.2c1.5,1.9,2.9,3.8,4.2,5.9h-19.6
					c-1.2,1.9-2.2,3.8-3.2,5.9h26c0.9,1.9,1.7,3.9,2.3,5.9h-30.7c-0.6,1.9-1.2,3.9-1.6,5.9h33.9c0.8,3.8,1.2,7.7,1.2,11.7
					c0,6.1-1,12.1-2.9,17.6h-30.7c0.7,2,1.5,4,2.3,5.9h26c-0.9,2-2,4-3.2,5.9h-19.6c1.3,2,2.7,4,4.2,5.9h11.2
					c-1.7,2.1-3.6,4-5.6,5.9c9.8,8.9,22.8,14.3,37.1,14.3c30.5,0,55.3-24.8,55.3-55.3C232.4,50.4,207.7,25.6,177.1,25.6z"/>
			</g>
		</g>
		<path d="M225.1,111.7c0-1,0.8-1.8,1.8-1.8c1,0,1.8,0.8,1.8,1.8c0,1-0.8,1.8-1.8,1.8C225.9,113.5,225.1,112.7,225.1,111.7z
			 M226.8,113.1c0.7,0,1.4-0.6,1.4-1.4c0-0.8-0.6-1.4-1.4-1.4c-0.8,0-1.4,0.6-1.4,1.4C225.5,112.5,226.1,113.1,226.8,113.1z
			 M226.6,112.5h-0.4V111h0.7c0.1,0,0.3,0,0.4,0.1c0.1,0.1,0.2,0.2,0.2,0.4c0,0.2-0.1,0.3-0.3,0.4l0.3,0.7h-0.4l-0.2-0.6h-0.3V112.5
			z M226.6,111.6h0.2c0.1,0,0.2,0,0.2,0c0.1,0,0.1-0.1,0.1-0.2c0-0.1,0-0.1-0.1-0.2c-0.1,0-0.2,0-0.2,0h-0.2V111.6z"/>
	</g>
	<g>
		<g>
			<path d="M90,87c-0.6-0.1-0.9-0.1-1.3-0.1c-3.4,0-5.1,1.2-5.1,3.5c0,1.4,0.8,2.3,2.2,2.3C88.1,92.7,89.9,90.3,90,87z M94.3,97.1
				c-0.8,0-5,0-5,0l0.1-2.4c-1.5,1.9-3.5,2.8-6.3,2.8c-3.3,0-5.5-2.5-5.5-6.2c0-5.6,3.9-8.8,10.5-8.8c0.7,0,1.6,0.1,2.4,0.2
				c0.2-0.8,0.2-1.1,0.2-1.5c0-1.5-1-2.1-3.9-2.1c-2.9,0-5.4,0.7-6.4,1c0.1-0.4,0.8-5.1,0.8-5.1c3-0.9,5-1.2,7.2-1.2
				c5.2,0,7.9,2.3,7.9,6.7c0,1.2-0.2,2.6-0.5,4.5C95.6,88.3,94.5,95.4,94.3,97.1z"/>
			<polygon points="75.2,97.1 69.2,97.1 72.6,75.6 64.9,97.1 60.8,97.1 60.3,75.7 56.7,97.1 51.1,97.1 55.8,69.1 64.4,69.1 
				64.9,84.8 70.2,69.1 79.8,69.1 			"/>
			<path d="M184.5,87c-0.6-0.1-0.9-0.1-1.3-0.1c-3.4,0-5.1,1.2-5.1,3.5c0,1.4,0.8,2.3,2.2,2.3C182.7,92.7,184.4,90.3,184.5,87z
				 M188.9,97.1c-0.8,0-5,0-5,0l0.1-2.4c-1.5,1.9-3.5,2.8-6.3,2.8c-3.3,0-5.5-2.5-5.5-6.2c0-5.6,3.9-8.8,10.5-8.8
				c0.7,0,1.6,0.1,2.4,0.2c0.2-0.8,0.2-1.1,0.2-1.5c0-1.5-1-2.1-3.9-2.1c-2.9,0-5.4,0.7-6.4,1c0.1-0.4,0.8-5.1,0.8-5.1
				c3-0.9,5-1.2,7.2-1.2c5.2,0,7.9,2.3,7.9,6.7c0,1.2-0.2,2.6-0.5,4.5C190.2,88.3,189.1,95.4,188.9,97.1z"/>
			<path d="M121,96.8c-1.6,0.5-2.9,0.7-4.3,0.7c-3.1,0-4.7-1.8-4.7-5c0-1,0.4-3.7,0.8-6.1c0.3-2.1,2.6-15.6,2.6-15.6h6l-0.7,3.5h3.6
				l-0.8,5.5h-3.6c-0.7,4.3-1.7,9.7-1.7,10.5c0,1.2,0.6,1.7,2.1,1.7c0.7,0,1.2-0.1,1.6-0.2L121,96.8z"/>
			<path d="M139.3,96.6c-2,0.6-4,0.9-6.1,0.9c-6.7,0-10.2-3.5-10.2-10.2c0-7.8,4.4-13.5,10.4-13.5c4.9,0,8.1,3.2,8.1,8.3
				c0,1.7-0.2,3.3-0.7,5.6h-11.9c-0.4,3.3,1.7,4.7,5.2,4.7c2.1,0,4.1-0.4,6.2-1.4L139.3,96.6z M136,83.1c0-0.5,0.6-4.1-2.8-4.1
				c-1.9,0-3.3,1.4-3.8,4.1H136z"/>
			<path d="M97.9,81.5c0,2.9,1.4,4.9,4.6,6.4c2.4,1.1,2.8,1.5,2.8,2.5c0,1.4-1.1,2.1-3.4,2.1c-1.8,0-3.5-0.3-5.4-0.9
				c0,0-0.8,5-0.8,5.3c1.4,0.3,2.6,0.6,6.2,0.7c6.3,0,9.3-2.4,9.3-7.6c0-3.1-1.2-5-4.2-6.4c-2.5-1.2-2.8-1.4-2.8-2.5
				c0-1.2,1-1.9,2.9-1.9c1.2,0,2.8,0.1,4.3,0.3l0.9-5.3c-1.6-0.2-3.9-0.4-5.3-0.4C100.2,73.8,97.9,77.3,97.9,81.5z"/>
			<path d="M168.5,74.4c1.7,0,3.2,0.4,5.4,1.5l1-6.1c-0.9-0.3-4-2.4-6.6-2.4c-4,0-7.4,2-9.8,5.3c-3.5-1.2-4.9,1.2-6.7,3.5l-1.6,0.4
				c0.1-0.8,0.2-1.5,0.2-2.3h-5.5c-0.8,7.1-2.1,14.2-3.1,21.3l-0.3,1.5h6c1-6.5,1.6-10.7,1.9-13.5l2.3-1.3c0.3-1.3,1.4-1.7,3.5-1.6
				c-0.3,1.5-0.4,3.1-0.4,4.7c0,7.5,4,12.1,10.5,12.1c1.7,0,3.1-0.2,5.3-0.8l1.1-6.4c-2,1-3.6,1.4-5.1,1.4c-3.5,0-5.6-2.6-5.6-6.8
				C160.9,78.7,164,74.4,168.5,74.4z"/>
			<path d="M219.3,69.1l-1.3,8.1c-1.6-2.2-3.4-3.7-5.7-3.7c-3,0-5.8,2.3-7.6,5.7c-2.5-0.5-5.1-1.4-5.1-1.4l0,0
				c0.2-1.9,0.3-3,0.3-3.4h-5.5c-0.8,7.1-2.1,14.2-3.1,21.3l-0.3,1.5h6c0.8-5.3,1.4-9.6,1.9-13.1c2.1-1.9,3.1-3.5,5.2-3.4
				c-0.9,2.2-1.5,4.8-1.5,7.4c0,5.7,2.9,9.5,7.3,9.5c2.2,0,3.9-0.8,5.5-2.5l-0.3,2.1h5.7l4.6-28H219.3z M211.8,91.9
				c-2,0-3.1-1.5-3.1-4.5c0-4.5,1.9-7.7,4.7-7.7c2.1,0,3.2,1.6,3.2,4.5C216.6,88.7,214.6,91.9,211.8,91.9z"/>
		</g>
		<g>
			<polygon fill="#FFFFFF" points="76.9,95.5 70.9,95.5 74.3,73.9 66.7,95.5 62.6,95.5 62.1,74 58.4,95.5 52.8,95.5 57.5,67.4 
				66.2,67.4 66.4,84.8 72.2,67.4 81.5,67.4 			"/>
			<path fill="#FFFFFF" d="M91.7,85.3c-0.6-0.1-0.9-0.1-1.3-0.1c-3.4,0-5.1,1.2-5.1,3.5c0,1.4,0.8,2.3,2.2,2.3
				C89.8,91,91.6,88.7,91.7,85.3z M96.1,95.5c-0.8,0-5,0-5,0l0.1-2.4c-1.5,1.9-3.5,2.8-6.3,2.8c-3.3,0-5.5-2.5-5.5-6.2
				c0-5.6,3.9-8.8,10.5-8.8c0.7,0,1.6,0.1,2.4,0.2c0.2-0.8,0.2-1.1,0.2-1.5c0-1.5-1-2.1-3.9-2.1c-2.9,0-5.4,0.7-6.4,1
				c0.1-0.4,0.8-5.1,0.8-5.1c3-0.9,5-1.2,7.2-1.2c5.2,0,7.9,2.3,7.9,6.7c0,1.2-0.2,2.6-0.5,4.5C97.3,86.7,96.2,93.8,96.1,95.5z"/>
			<path fill="#FFFFFF" d="M176.6,68.2l-1,6.1c-2.1-1.1-3.7-1.5-5.4-1.5c-4.5,0-7.6,4.3-7.6,10.5c0,4.3,2.1,6.8,5.6,6.8
				c1.5,0,3.1-0.5,5.1-1.4l-1.1,6.4c-2.2,0.6-3.6,0.8-5.3,0.8c-6.5,0-10.5-4.6-10.5-12.1c0-10,5.6-17,13.5-17
				C172.6,66.7,175.7,67.8,176.6,68.2z"/>
			<path fill="#FFFFFF" d="M186.3,85.3c-0.6-0.1-0.9-0.1-1.3-0.1c-3.4,0-5.1,1.2-5.1,3.5c0,1.4,0.8,2.3,2.2,2.3
				C184.4,91,186.2,88.7,186.3,85.3z M190.6,95.5c-0.8,0-5,0-5,0l0.1-2.4c-1.5,1.9-3.5,2.8-6.3,2.8c-3.3,0-5.5-2.5-5.5-6.2
				c0-5.6,3.9-8.8,10.5-8.8c0.7,0,1.6,0.1,2.4,0.2c0.2-0.8,0.2-1.1,0.2-1.5c0-1.5-1-2.1-3.9-2.1c-2.9,0-5.4,0.7-6.4,1
				c0.1-0.4,0.8-5.1,0.8-5.1c3-0.9,5-1.2,7.2-1.2c5.2,0,7.9,2.3,7.9,6.7c0,1.2-0.2,2.6-0.5,4.5C191.9,86.7,190.8,93.8,190.6,95.5z"
				/>
			<path fill="#FFFFFF" d="M122.7,95.1c-1.6,0.5-2.9,0.7-4.3,0.7c-3.1,0-4.7-1.8-4.7-5c0-1,0.4-3.7,0.8-6.1
				c0.3-2.1,2.6-15.6,2.6-15.6h6l-0.7,3.5h3.1l-0.8,5.5h-3.1c-0.7,4.3-1.7,9.7-1.7,10.5c0,1.2,0.6,1.7,2.1,1.7
				c0.7,0,1.2-0.1,1.6-0.2L122.7,95.1z"/>
			<path fill="#FFFFFF" d="M141,94.9c-2,0.6-4,0.9-6.1,0.9c-6.7,0-10.2-3.5-10.2-10.2c0-7.8,4.4-13.5,10.4-13.5
				c4.9,0,8.1,3.2,8.1,8.3c0,1.7-0.2,3.3-0.7,5.6h-11.9c-0.4,3.3,1.7,4.7,5.2,4.7c2.1,0,4.1-0.4,6.2-1.4L141,94.9z M137.7,81.4
				c0-0.5,0.6-4.1-2.8-4.1c-1.9,0-3.3,1.5-3.8,4.1H137.7z"/>
			<path fill="#FFFFFF" d="M99.7,79.9c0,2.9,1.4,4.9,4.6,6.4c2.4,1.1,2.8,1.5,2.8,2.5c0,1.4-1.1,2.1-3.4,2.1c-1.8,0-3.5-0.3-5.4-0.9
				c0,0-0.8,5-0.8,5.3c1.4,0.3,2.6,0.6,6.2,0.7c6.3,0,9.3-2.4,9.3-7.6c0-3.1-1.2-5-4.2-6.4c-2.5-1.2-2.8-1.4-2.8-2.5
				c0-1.2,1-1.9,2.9-1.9c1.2,0,2.8,0.1,4.3,0.3l0.9-5.3c-1.6-0.2-3.9-0.4-5.3-0.4C102,72.2,99.6,75.7,99.7,79.9z"/>
			<path fill="#FFFFFF" d="M222.4,95.5h-5.7l0.3-2.1c-1.6,1.8-3.3,2.5-5.5,2.5c-4.4,0-7.2-3.8-7.2-9.5c0-7.6,4.5-14,9.8-14
				c2.3,0,4.1,1,5.7,3.1l1.3-8.1h5.9L222.4,95.5z M213.6,90.2c2.8,0,4.8-3.2,4.8-7.7c0-2.9-1.1-4.5-3.2-4.5c-2.7,0-4.7,3.2-4.7,7.7
				C210.5,88.7,211.5,90.2,213.6,90.2z"/>
			<path fill="#FFFFFF" d="M196.1,72.7c-0.8,7.1-2.1,14.2-3.1,21.3l-0.3,1.5h6c2.1-13.9,2.7-16.7,6-16.3c0.5-2.9,1.5-5.4,2.3-6.6
				c-2.5-0.5-3.9,0.9-5.8,3.6c0.1-1.2,0.4-2.3,0.4-3.5H196.1z"/>
			<path fill="#FFFFFF" d="M146.6,72.7c-0.8,7.1-2.1,14.2-3.1,21.3l-0.3,1.5h6c2.1-13.9,2.7-16.7,6-16.3c0.5-2.9,1.5-5.4,2.3-6.6
				c-2.5-0.5-3.9,0.9-5.8,3.6c0.1-1.2,0.4-2.3,0.4-3.5H146.6z"/>
			<g>
				<path fill="#FFFFFF" d="M225.1,93.7c0-1,0.8-1.8,1.8-1.8c1,0,1.8,0.8,1.8,1.8c0,1-0.8,1.8-1.8,1.8
					C225.9,95.5,225.1,94.7,225.1,93.7z M226.8,95c0.8,0,1.4-0.6,1.4-1.4c0-0.7-0.6-1.4-1.4-1.4c-0.7,0-1.4,0.6-1.4,1.4
					C225.5,94.4,226.1,95,226.8,95z M226.6,94.5h-0.4v-1.6h0.7c0.1,0,0.3,0,0.4,0.1c0.1,0.1,0.2,0.2,0.2,0.4c0,0.2-0.1,0.3-0.3,0.4
					l0.3,0.7h-0.4l-0.2-0.6h-0.3V94.5z M226.6,93.6h0.2c0.1,0,0.2,0,0.2,0c0.1,0,0.1-0.1,0.1-0.2c0-0.1,0-0.1-0.1-0.2
					c-0.1,0-0.2,0-0.2,0h-0.2V93.6z"/>
			</g>
		</g>
	</g>
</g>
<g>
	<path fill="#0033A0" d="M-774.4,43l-19.5,52.6l-2.1-10.7c-4.9-13.1-15.4-26.8-27.6-32.4l17.8,67.5l21.1,0l31.4-77H-774.4L-774.4,43
		z"/>
	<polygon fill="#0033A0" points="-757.7,120.1 -745.2,43 -725.3,43 -737.8,120.1 -757.7,120.1 	"/>
	<path fill="#0033A0" d="M-665.5,44.9c-3.9-1.6-10.1-3.2-17.8-3.2c-19.7,0-33.5,10.5-33.7,25.5c-0.1,11.1,9.9,17.3,17.4,21
		c7.8,3.8,10.4,6.2,10.4,9.6c-0.1,5.2-6.2,7.5-11.9,7.5c-8,0-12.2-1.2-18.7-4l-2.6-1.2l-2.8,17.3c4.7,2.1,13.3,4,22.2,4.1
		c20.9,0,34.5-10.4,34.7-26.3c0.1-8.8-5.2-15.5-16.7-21c-6.9-3.6-11.2-5.9-11.2-9.6c0-3.2,3.6-6.6,11.4-6.6c6.5-0.1,11.2,1.4,14.9,3
		l1.8,0.9L-665.5,44.9L-665.5,44.9z"/>
	<path fill="#0033A0" d="M-614.4,43h-15.4c-4.8,0-8.3,1.4-10.5,6.4l-29.6,70.7h20.9c0,0,3.4-9.5,4.2-11.6c2.3,0,22.6,0,25.5,0
		c0.6,2.7,2.4,11.5,2.4,11.5h18.5L-614.4,43L-614.4,43z M-639,92.7c1.7-4.4,7.9-21.6,7.9-21.6c-0.1,0.2,1.6-4.5,2.6-7.3l1.3,6.6
		c0,0,3.8,18.4,4.6,22.3C-625.6,92.7-635.1,92.7-639,92.7L-639,92.7z"/>
	<path fill="#FF9E16" d="M-812,43h-32.1l-0.2,1.3c25,6.4,41.5,22.1,48.3,40.6l-7-35.5C-804.1,44.6-807.6,43.2-812,43L-812,43z"/>
</g>
<g>
	<g>
		<path fill="#0033A0" d="M-430.3,78.9l-11.1,30l-1.2-6.1c-2.8-7.5-8.8-15.3-15.7-18.5l10.2,38.5l12,0l17.9-43.9H-430.3L-430.3,78.9
			z"/>
		<polygon fill="#0033A0" points="-420.8,122.8 -413.7,78.8 -402.3,78.8 -409.4,122.8 -420.8,122.8 		"/>
		<path fill="#0033A0" d="M-368.2,79.9c-2.2-0.9-5.8-1.9-10.2-1.9c-11.2,0-19.1,6-19.2,14.5c-0.1,6.3,5.6,9.9,9.9,12
			c4.4,2.2,5.9,3.5,5.9,5.5c0,2.9-3.5,4.3-6.8,4.3c-4.5,0-7-0.7-10.7-2.3l-1.5-0.7l-1.6,9.8c2.7,1.2,7.6,2.3,12.7,2.3
			c11.9,0,19.7-5.9,19.8-15c0-5-3-8.8-9.5-12c-4-2-6.4-3.4-6.4-5.5c0-1.8,2.1-3.8,6.5-3.8c3.7-0.1,6.4,0.8,8.5,1.7l1,0.5
			L-368.2,79.9L-368.2,79.9z"/>
		<path fill="#0033A0" d="M-339.1,78.9h-8.8c-2.7,0-4.8,0.8-6,3.7l-16.9,40.3h11.9c0,0,2-5.4,2.4-6.6c1.3,0,12.9,0,14.5,0
			c0.4,1.5,1.4,6.6,1.4,6.6h10.5L-339.1,78.9L-339.1,78.9z M-353.1,107.2c0.9-2.5,4.5-12.3,4.5-12.3c-0.1,0.1,0.9-2.5,1.5-4.2
			l0.8,3.8c0,0,2.2,10.5,2.6,12.7C-345.5,107.2-350.9,107.2-353.1,107.2L-353.1,107.2z"/>
		<path fill="#FF9E16" d="M-451.8,78.8h-18.3l-0.1,0.8c14.2,3.6,23.6,12.6,27.5,23.2l-4-20.2C-447.3,79.8-449.3,78.9-451.8,78.8
			L-451.8,78.8z"/>
	</g>
	<polygon fill="#0033A0" points="-504.4,68.2 -511.7,68.2 -520,30.6 -512,29.2 -506.3,58.7 -491.7,29.6 -484.1,29.6 -504.4,68.2 	
		"/>
	<path fill="#0033A0" d="M-466.8,55.9H-484c-0.5,5.2,2,7.5,6.1,7.5c3.5,0,6.5-1.3,9.8-3.3l0,5.2c-3.2,2-6.9,3.3-11.3,3.3
		c-7.5,0-12.5-4.3-11-14c1.3-8.7,7.4-14,14.4-14c8.1,0,10.8,6.1,9.6,13.7C-466.5,54.9-466.7,55.5-466.8,55.9L-466.8,55.9z
		 M-476.9,45.2c-2.7,0-5.2,2.1-6.4,6.5h10.7C-472.4,47.6-473.7,45.2-476.9,45.2L-476.9,45.2z"/>
	<path fill="#0033A0" d="M-455.5,52.6l-2.4,15.4h-6.7l4.1-26.9h5.7l0,5.4c2.3-3.1,5.3-5.7,9.6-6l0,6.6
		C-449.4,47.5-453.2,49.7-455.5,52.6L-455.5,52.6z"/>
	<path fill="#0033A0" d="M-445.2,68.1l4.1-26.9h6.7l-4.1,26.9H-445.2L-445.2,68.1z M-437,36.6c-2.2,0-3.8-1.6-3.4-3.8
		c0.4-2.3,2.4-3.9,4.6-3.9c2.2,0,3.7,1.6,3.4,3.9C-432.8,35.1-434.8,36.6-437,36.6L-437,36.6z"/>
	<path fill="#0033A0" d="M-415.9,33.8c-2.3,0-3.7,1-4,3.4l-0.6,4h5.1l0,5.5h-6l-3.3,21.4h-6.6l3.3-21.4h-3.9l0.8-5.5h3.9l0.7-4.6
		c0.9-6,5-8.2,10.6-8.2c1.2,0,2,0.1,2.7,0.2l0.1,5.5C-413.8,33.9-414.8,33.8-415.9,33.8L-415.9,33.8z"/>
	<path fill="#0033A0" d="M-415.8,68.1l4.1-26.9h6.7l-4.1,26.9H-415.8L-415.8,68.1z M-407.6,36.6c-2.2,0-3.8-1.6-3.4-3.8
		c0.4-2.3,2.4-3.9,4.6-3.9c2.2,0,3.7,1.6,3.4,3.9C-403.4,35.1-405.4,36.6-407.6,36.6L-407.6,36.6z"/>
	<path fill="#0033A0" d="M-379.1,55.9h-17.3c-0.5,5.2,2,7.5,6.1,7.5c3.5,0,6.5-1.3,9.8-3.3l0,5.2c-3.2,2-6.9,3.3-11.3,3.3
		c-7.5,0-12.5-4.3-11-14c1.3-8.7,7.4-14,14.4-14c8.1,0,10.8,6.1,9.6,13.7C-378.9,54.9-379,55.5-379.1,55.9L-379.1,55.9z
		 M-389.2,45.2c-2.7,0-5.2,2.1-6.4,6.5h10.7C-384.7,47.6-386,45.2-389.2,45.2L-389.2,45.2z"/>
	<path fill="#0033A0" d="M-359.3,68.1l0-3.7c-2.2,2.3-5.2,4.3-8.9,4.3c-5.6,0-9.5-4.2-8.1-13.3c1.5-10,7.7-14.5,14-14.5
		c2.6,0,4.6,0.4,6.1,1l2-13l6.8-1.1l-6.2,40.2H-359.3L-359.3,68.1z M-357,47.4c-1.6-0.8-2.8-1.2-5.1-1.2c-3.5,0-6.5,2.8-7.4,8.7
		c-0.8,5.2,1,7.7,4,7.7c2.5,0,4.6-1.4,6.7-3.7L-357,47.4L-357,47.4z"/>
	<path fill="#0033A0" d="M-333.1,68.3c-3.2,0-5.7-0.5-8.1-1.4l4.4-28.6l5.2-0.8l-1.9,12.4c1.5-1.4,3.6-2.7,6.2-2.7
		c4.3,0,7.2,3.2,6.1,10C-322.3,64.8-327,68.3-333.1,68.3L-333.1,68.3z M-329.3,51.7c-1.7,0-3.4,1.1-4.9,2.7l-1.4,9.2
		c1,0.4,1.7,0.5,3.1,0.5c3.2,0,5.4-1.9,6.2-6.6C-325.7,53.7-327,51.7-329.3,51.7L-329.3,51.7z"/>
	<path fill="#0033A0" d="M-309.3,69.2c-2.6,5-5.1,6.6-9.1,6.6c-0.9,0-1.4-0.1-1.8-0.2l0-4.2c0.6,0.2,1.3,0.3,2.3,0.3
		c1.5,0,2.8-0.7,3.6-2.2l0.7-1.4l-4.3-20.1l5.4-0.7l2.5,14.5l6.7-14.2h5L-309.3,69.2L-309.3,69.2z"/>
</g>
</svg>
