<?xml version="1.0" encoding="utf-8"?>
<!-- Generator: Adobe Illustrator 19.0.0, SVG Export Plug-In . SVG Version: 6.00 Build 0)  -->
<svg version="1.1" id="Layer_1" xmlns="http://www.w3.org/2000/svg" xmlns:xlink="http://www.w3.org/1999/xlink" x="0px" y="0px"
	 viewBox="0 0 100 100" style="enable-background:new 0 0 100 100;" xml:space="preserve">
<style type="text/css">
	.st0{fill:#FFFFFF;}
</style>
<path id="XMLID_2_" class="st0" d="M92.3,2H6.6C3.7,2,1,4.7,1,7.6v85.6c0,3,2.7,5.8,5.6,5.8H53V61H40V47h13V36.1
	c0-12.4,7.6-19.2,18.7-19.2c5.3,0,9.3,0.4,11.3,0.6v13h-7.7c-6,0-7.3,2.9-7.3,7.1V47h14.1l-1.9,14H68v38h24.3l0.2-0.2
	c2.9,0,5.5-2.6,5.5-5.5V7.6C98,4.7,95.2,2,92.3,2z"/>
</svg>
