<?xml version="1.0" encoding="utf-8"?>
<!-- Generator: Adobe Illustrator 19.0.0, SVG Export Plug-In . SVG Version: 6.00 Build 0)  -->
<svg version="1.1" id="Layer_1" xmlns="http://www.w3.org/2000/svg" xmlns:xlink="http://www.w3.org/1999/xlink" x="0px" y="0px"
	 viewBox="0 0 100 100" style="enable-background:new 0 0 100 100;" xml:space="preserve">
<style type="text/css">
	.st0{fill:#FFFFFF;}
</style>
<path id="XMLID_6_" class="st0" d="M92.3,2H6.6C3.7,2,1,4.7,1,7.6v85.6c0,3,2.7,5.8,5.6,5.8h20.6H53h15h19.5h4.8l0.2-0.2
	c2.9,0,5.5-2.6,5.5-5.5V7.6C98,4.7,95.2,2,92.3,2z M85.1,72.5c-0.7,0.5-1.6,0.7-2.5,0.7c-3.3,0.1-6.5,0.1-9.8,0.3
	c-2.2,0.1-4.1-0.6-5.8-2c-1.2-1-2.2-2.1-3.3-3.3c-1.1-1.2-2.2-2.4-3.3-3.6c-0.5-0.5-1.1-0.9-1.7-1.3c-0.9-0.5-1.8-0.3-2.5,0.4
	c-0.7,0.6-1,1.5-1.3,2.3c-0.4,1.3-0.5,2.6-0.6,3.9c0,0.3-0.1,0.7-0.1,1c-0.1,0.9-0.7,1.5-1.5,1.8C52.2,72.9,51.6,73,51,73
	c-1.5,0-2.9,0-4.4,0c-2.6,0-5.1-0.5-7.6-1.4c-4.4-1.6-8.2-4.3-11.4-7.8c-3.1-3.4-5.8-7.1-8.2-11c-3.8-6.1-7.1-12.5-10-19
	c-0.2-0.4-0.3-0.9-0.2-1.4c0-0.4,0.2-0.6,0.6-0.8c0.6-0.3,1.2-0.4,1.8-0.4c3.7,0,7.3,0,11,0c1.3,0.2,2.4,0.7,3,2.2
	c0.9,2.5,2.1,4.9,3.4,7.3c1.5,2.6,3,5.2,4.8,7.6c0.7,0.9,1.3,1.7,2.3,2.3c0.6,0.4,1.3,0.6,2,0.2c0.4-0.2,0.6-0.5,0.8-0.9
	c0.4-0.9,0.6-1.9,0.7-2.9c0.3-2.3,0.2-4.7,0.1-7.1c-0.1-1.4-0.1-2.8-0.4-4.2c-0.1-0.3-0.2-0.7-0.3-1c-0.1-0.7-0.6-1.1-1.2-1.5
	c-0.8-0.5-1.6-0.8-2.5-0.8c-0.3,0-0.3-0.1-0.2-0.4c0.1-0.2,0.2-0.4,0.4-0.6c0.8-0.9,1.9-1.4,3.1-1.6c1.7-0.3,3.5-0.4,5.2-0.4
	c1.9,0,3.9,0,5.8,0.1c0.8,0,1.7,0.2,2.5,0.4c1.4,0.3,2.2,1.3,2.4,2.8c0.1,1.1,0.1,2.1,0.1,3.2c0,1.5-0.1,2.9-0.2,4.3
	c0,1.9-0.1,3.8-0.1,5.6c0,1,0.1,2,0.3,2.9c0.2,0.6,0.5,1.1,1,1.5c0.3,0.2,0.5,0.2,0.8,0.2c0.5-0.1,1-0.5,1.4-0.8
	c1-0.8,1.8-1.9,2.6-2.9C63.1,43,65.2,39,67,34.8c0.3-0.7,0.6-1.4,0.9-2.1c0.2-0.6,0.6-1,1.1-1.3c0.3-0.1,0.7-0.1,1-0.2
	c0.2,0,0.3,0,0.5,0c3.7,0,7.4,0,11.1,0c0.8,0,1.5,0,2.3,0c0.4,0,0.8,0.2,1.1,0.3c0.6,0.2,0.8,0.7,0.9,1.3c0,0.8-0.2,1.5-0.4,2.2
	c-0.7,1.8-1.7,3.5-2.8,5.1c-2.1,3.2-4.4,6.1-6.7,9.2c-0.7,1-1.4,2-2.1,3.1c-0.4,0.6-0.6,1.3-0.5,2s0.4,1.3,0.9,1.8
	c0.8,0.9,1.6,1.7,2.5,2.5c2.3,2.1,4.5,4.3,6.5,6.7c0.9,1.1,1.8,2.3,2.4,3.6c0.2,0.3,0.3,0.7,0.3,1.1C86.2,71.2,85.9,72,85.1,72.5z"
	/>
</svg>
