<?xml version="1.0" encoding="utf-8"?>
<!-- Generator: Adobe Illustrator 18.1.0, SVG Export Plug-In . SVG Version: 6.00 Build 0)  -->
<svg version="1.1" id="Layer_1" xmlns="http://www.w3.org/2000/svg" xmlns:xlink="http://www.w3.org/1999/xlink" x="0px" y="0px"
	 viewBox="0 0 100 100" enable-background="new 0 0 100 100" xml:space="preserve">
<path fill="#FF6027" d="M81.6,18l-2.1,2.1C87.5,28,92,38.6,92,49.9C92,73,73.2,91.8,50.1,91.8c-23.2,0.1-42-18.7-42-41.8
	c0-18.4,11.9-34.5,29.3-40l0.8,5.8L50,6.6L36.1,1L37,7C18.1,12.7,5.1,30.1,5.1,50c0,24.8,20.1,44.9,44.9,44.9S94.9,74.8,94.9,50
	C94.9,37.9,90.2,26.5,81.6,18z"/>
<path fill="#FF6027" d="M41,63.2h-2.2V39l-6.7,0.8v-1.5l8.9-1.6V63.2z"/>
<path fill="#FF6027" d="M49.7,51.1l1.5-14.5H64v2h-11l-1,9.4c0.7-0.6,1.4-1.1,2.2-1.4c0.8-0.3,1.9-0.5,3.2-0.5
	c2.2,0,4.1,0.7,5.4,2.3c1.4,1.5,2.1,3.6,2.1,6.2c0,2.7-0.7,4.8-2,6.4s-3.3,2.4-6,2.4c-2.2,0-4-0.6-5.4-1.8c-1.5-1.2-2.1-3-2.1-5.4
	l0-0.1h1.9c0,1.8,0.5,3.1,1.5,4.1c1,0.9,2.4,1.4,4,1.4c2,0,3.4-0.6,4.4-1.8c1-1.2,1.5-2.9,1.5-5.1c0-2-0.5-3.5-1.5-4.7
	c-1-1.2-2.3-1.8-4.1-1.8c-1.7,0-3,0.3-3.9,0.8c-0.9,0.5-1.5,1.4-1.9,2.4L49.7,51.1z"/>
</svg>
