<?xml version="1.0" encoding="utf-8"?>
<!-- Generator: Adobe Illustrator 18.1.0, SVG Export Plug-In . SVG Version: 6.00 Build 0)  -->
<svg version="1.1" id="Layer_1" xmlns="http://www.w3.org/2000/svg" xmlns:xlink="http://www.w3.org/1999/xlink" x="0px" y="0px"
	 viewBox="0 0 100 100" enable-background="new 0 0 100 100" xml:space="preserve">
<path fill="#FF6027" d="M81.6,18l-2.1,2.1C87.5,28,92,38.6,92,49.9C92,73,73.2,91.8,50.1,91.8c-23.2,0.1-42-18.7-42-41.8
	c0-18.4,11.9-34.5,29.3-40l0.8,5.8L50,6.6L36.1,1L37,7C18.1,12.7,5.1,30.1,5.1,50c0,24.8,20.1,44.9,44.9,44.9S94.9,74.8,94.9,50
	C94.9,37.9,90.2,26.5,81.6,18z"/>
<g>
	<path fill="#FF6027" d="M48.5,63.1H32.2v-1.7l8.6-9.7c1.6-1.8,2.7-3.3,3.4-4.5s1-2.4,1-3.5c0-1.6-0.5-2.9-1.4-3.9s-2.2-1.5-3.9-1.5
		c-2,0-3.5,0.6-4.5,1.7c-1,1.1-1.5,2.6-1.5,4.4h-2v-0.1c-0.1-2.2,0.6-4,2.1-5.6c1.5-1.5,3.5-2.3,6-2.3c2.3,0,4.1,0.6,5.4,1.9
		c1.4,1.3,2,3,2,5.2c0,1.4-0.5,2.9-1.4,4.4s-2.2,3.1-3.8,5L35,61.2v0.1h13.5V63.1z"/>
	<path fill="#FF6027" d="M69.3,52.9c0,3.4-0.7,6-2.2,7.8s-3.5,2.7-6.1,2.7s-4.6-0.9-6.1-2.7s-2.2-4.4-2.2-7.8V47
		c0-3.4,0.7-6,2.2-7.8s3.5-2.8,6.1-2.8s4.6,0.9,6.1,2.8c1.5,1.8,2.2,4.4,2.2,7.8V52.9z M67.1,46.7c0-2.7-0.5-4.8-1.6-6.2
		s-2.6-2.2-4.6-2.2s-3.5,0.7-4.6,2.2c-1,1.4-1.6,3.5-1.6,6.2v6.5c0,2.7,0.5,4.7,1.6,6.2s2.6,2.2,4.6,2.2s3.5-0.7,4.6-2.2
		s1.6-3.5,1.6-6.2V46.7z"/>
</g>
</svg>
