<?xml version="1.0" encoding="utf-8"?>
<!-- Generator: Adobe Illustrator 18.1.0, SVG Export Plug-In . SVG Version: 6.00 Build 0)  -->
<svg version="1.1" id="Layer_1" xmlns="http://www.w3.org/2000/svg" xmlns:xlink="http://www.w3.org/1999/xlink" x="0px" y="0px"
	 viewBox="0 0 100 100" enable-background="new 0 0 100 100" xml:space="preserve">
<g>
	<path fill="#FF6027" d="M50,94.9C25.2,94.9,5.1,74.8,5.1,50S25.2,5.1,50,5.1S94.9,25.2,94.9,50S74.8,94.9,50,94.9z M50,8.1
		C26.9,8.1,8.1,26.9,8.1,50S26.9,91.9,50,91.9S91.9,73.1,91.9,50S73.1,8.1,50,8.1z"/>
</g>
<g>
	<rect x="28.4" y="17.9" transform="matrix(-0.5 -0.866 0.866 -0.5 29.9509 55.1085)" fill="#FF6027" width="5" height="2"/>
</g>
<g>
	<rect x="15.4" y="31.6" transform="matrix(-0.866 -0.5 0.5 -0.866 17.1104 69.7974)" fill="#FF6027" width="5" height="2"/>
</g>
<g>
	<rect x="11" y="50" fill="#FF6027" width="5" height="2"/>
</g>
<g>
	
		<rect x="17.9" y="66.6" transform="matrix(-0.4999 -0.8661 0.8661 -0.4999 -31.5021 120.0412)" fill="#FF6027" width="2" height="5"/>
</g>
<g>
	
		<rect x="31.6" y="79.6" transform="matrix(-0.8661 -0.4999 0.4999 -0.8661 19.8142 169.4978)" fill="#FF6027" width="2" height="5"/>
</g>
<g>
	<rect x="50" y="84" fill="#FF6027" width="2" height="5"/>
</g>
<g>
	<rect x="66.6" y="80.1" transform="matrix(-0.5 -0.866 0.866 -0.5 33.4539 181.4927)" fill="#FF6027" width="5" height="2"/>
</g>
<g>
	<rect x="79.6" y="66.4" transform="matrix(-0.866 -0.5 0.5 -0.866 119.4885 166.7993)" fill="#FF6027" width="5" height="2"/>
</g>
<g>
	<path fill="#FF6027" d="M82,50H50V18h1c16.9,0,31,14.1,31,31V50z M52,48h27.6C79.1,33,67,20.9,52,20.4V48z"/>
</g>
</svg>
