<?xml version="1.0" encoding="utf-8"?>
<!-- Generator: Adobe Illustrator 18.1.0, SVG Export Plug-In . SVG Version: 6.00 Build 0)  -->
<svg version="1.1" id="Layer_1" xmlns="http://www.w3.org/2000/svg" xmlns:xlink="http://www.w3.org/1999/xlink" x="0px" y="0px"
	 viewBox="83 -83.9 266.9 266.9" enable-background="new 83 -83.9 266.9 266.9" xml:space="preserve">
<path id="f" fill="#E6E6E6" d="M225.9,110.7V55.8h18.4l2.8-21.4h-21.2V20.8c0-6.2,1.7-10.4,10.6-10.4l11.3,0V-8.7
	c-2-0.3-8.7-0.8-16.5-0.8c-16.3,0-27.5,10-27.5,28.3v15.8h-18.5v21.4h18.5v54.9L225.9,110.7L225.9,110.7z"/>
<path fill="#FF6027" d="M-122.7,19.3c0.9-1.4,2.1-2.1,3.8-2.2c0.8,0,1.6-0.1,2.3-0.1c6.4,0,12.7-0.1,19.1-0.1c3.3,0,5.4,1.4,6.9,4.5
	c3.8,7.9,7.7,15.8,11.8,23.6c1.7,3.3,3.9,6.2,6.8,8.6c0.7,0.5,1.4,1,2.2,1.3c1.8,0.7,3.2,0.1,4.1-1.6c1.4-2.5,1.5-5.3,1.8-8.1
	c0.7-6.4,0.7-12.8-0.6-19.1c-0.8-3.8-3.1-5.8-6.7-6.6c-1.9-0.4-2-0.9-0.7-2.3c1.5-1.7,3.4-2.8,5.7-3.1c8.5-1.3,16.9-1.4,25.4-0.1
	c4.2,0.7,5.8,2.1,6.1,7c0.3,3.8,0,7.6-0.1,11.4c-0.1,5.1-0.2,10.2-0.1,15.2c0,1.5,0.3,3,0.9,4.4c1.1,3,3.4,3.4,5.8,1.4
	c4-3.3,6.6-7.6,9.3-11.8c4.1-6.4,7.5-13.2,10.3-20.3c1.5-3.8,2.2-4.2,6.2-4.2c7.9-0.1,15.7-0.2,23.6-0.2c1.2,0,2.5,0.1,3.6,0.5
	c2.2,0.7,2.9,1.9,2.5,4.2c-0.6,3.5-2.3,6.7-4.3,9.6c-5.1,7.3-10.4,14.5-15.6,21.8c-1.2,1.6-2.4,3.2-3.4,5c-1.7,2.9-1.4,5.6,0.9,8
	c3.4,3.5,7,6.9,10.5,10.4c3.8,3.8,7.4,7.8,10.2,12.4c0.6,1,1,2,1.3,3.1c1.1,3.8-0.8,5.8-4.5,6.2c-3.3,0.3-6.6,0.3-10,0.3
	C8.3,98.5,4,98.7-0.3,98.7c-3.7,0-7-1.3-9.7-3.7c-3-2.6-5.6-5.6-8.4-8.4c-2-2-4-4.1-6.1-6.1c-0.5-0.5-1.2-1-1.9-1.3
	c-1.8-0.9-3.1-0.7-4.7,0.7c-2.7,2.4-3.3,5.7-3.7,9c-0.2,1.5-0.2,2.9-0.3,4.4c-0.2,3-1.6,4.7-4.6,4.9c-12.9,1.1-25.1-0.5-36.2-8.1
	c-7.4-5.1-13.3-11.3-18.6-18.4c-11.3-15.1-20.1-31.7-27.7-49c-0.2-0.4-0.4-0.9-0.6-1.3C-122.7,20.6-122.7,19.9-122.7,19.3z"/>
<g>
	<path fill="#FF6027" d="M472.9,77c-1.2-0.3-2-0.5-2.8-0.7c-6.8-1.8-13.3-4.4-19.3-8.2c-4.4-2.7-6.4-7.4-5.1-12.3
		c1.1-4.5,5.3-8.1,10.3-8.1c2.1,0,4.4,0.7,6.2,1.8c6.4,3.8,13.2,6.2,20.6,7c10.9,1.1,21.2-1.1,30.5-6.9c5.2-3.2,10.9-2,14.4,1.8
		c4.2,4.6,3.5,12.3-1.5,15.8c-6.3,4.4-13.4,7.2-20.8,9.1c-0.7,0.2-1.4,0.4-2.4,0.7c0.6,0.7,1,1.1,1.4,1.6c6.6,6.7,13.3,13.3,19.9,20
		c5.8,5.9,3.7,15.5-4,18.1c-4.3,1.5-8.2,0.6-11.4-2.6c-6.6-6.5-13.1-13.1-19.6-19.6c-1.4-1.4-1.4-1.4-2.8,0
		c-6.5,6.5-12.9,13-19.4,19.4c-4.5,4.4-11.1,4.6-15.4,0.6c-4.5-4.2-4.7-11.2-0.2-15.7c6.6-6.7,13.4-13.4,20-20.1
		C471.8,78.2,472.2,77.7,472.9,77z"/>
	<path fill="#FF6027" d="M450,8.1c-0.3-20.3,16.6-37.9,37.9-37.9c20.6,0.1,37.7,16.9,37.7,37.9c0,21.1-17.4,37.7-37.7,37.8
		C467.2,46,449.8,28.7,450,8.1z M471.9,8.1c-0.4,8.5,7.2,16.1,15.8,16c9-0.1,16.1-7.1,16.1-15.9c0-8.9-7.1-16-16-16.1
		C478.7-8,471.5-0.1,471.9,8.1z"/>
</g>
</svg>
