<?xml version="1.0" encoding="utf-8"?>
<!-- Generator: Adobe Illustrator 18.1.0, SVG Export Plug-In . SVG Version: 6.00 Build 0)  -->
<svg version="1.1" id="Layer_1" xmlns="http://www.w3.org/2000/svg" xmlns:xlink="http://www.w3.org/1999/xlink" x="0px" y="0px"
	 viewBox="0 0 100 100" enable-background="new 0 0 100 100" xml:space="preserve">
<path id="f" fill="#FFFFFF" d="M-55.5,72.5V51.9h6.9l1-8h-7.9v-5.1c0-2.3,0.6-3.9,4-3.9h4.2v-7.2c-0.7-0.1-3.3-0.3-6.2-0.3
	c-6.1,0-10.3,3.7-10.3,10.6V44h-6.9v8h6.9v20.6L-55.5,72.5L-55.5,72.5z"/>
<path fill="#FFFFFF" d="M-40.5-38.7c0.3-0.4,0.7-0.7,1.2-0.7c0.3,0,0.5,0,0.7,0c2,0,4.1,0,6.1,0c1.1,0,1.7,0.4,2.2,1.4
	c1.2,2.5,2.5,5,3.8,7.5c0.5,1.1,1.2,2,2.2,2.7c0.2,0.2,0.4,0.3,0.7,0.4c0.6,0.2,1,0,1.3-0.5c0.4-0.8,0.5-1.7,0.6-2.6
	c0.2-2,0.2-4.1-0.2-6.1c-0.3-1.2-1-1.9-2.1-2.1c-0.6-0.1-0.6-0.3-0.2-0.7c0.5-0.5,1.1-0.9,1.8-1c2.7-0.4,5.4-0.4,8.1,0
	c1.3,0.2,1.9,0.7,1.9,2.2c0.1,1.2,0,2.4,0,3.6c0,1.6-0.1,3.3,0,4.9c0,0.5,0.1,1,0.3,1.4c0.4,1,1.1,1.1,1.9,0.4
	c1.3-1.1,2.1-2.4,3-3.8c1.3-2,2.4-4.2,3.3-6.5c0.5-1.2,0.7-1.3,2-1.3c2.5,0,5-0.1,7.5-0.1c0.4,0,0.8,0,1.1,0.2
	c0.7,0.2,0.9,0.6,0.8,1.3c-0.2,1.1-0.7,2.1-1.4,3.1c-1.6,2.3-3.3,4.6-5,7c-0.4,0.5-0.8,1-1.1,1.6c-0.5,0.9-0.4,1.8,0.3,2.6
	c1.1,1.1,2.2,2.2,3.4,3.3c1.2,1.2,2.4,2.5,3.3,4c0.2,0.3,0.3,0.6,0.4,1c0.4,1.2-0.3,1.9-1.4,2c-1.1,0.1-2.1,0.1-3.2,0.1
	c-1.3,0-2.7,0.1-4.1,0.1c-1.2,0-2.2-0.4-3.1-1.2c-1-0.8-1.8-1.8-2.7-2.7c-0.6-0.6-1.3-1.3-1.9-1.9c-0.2-0.2-0.4-0.3-0.6-0.4
	c-0.6-0.3-1-0.2-1.5,0.2c-0.9,0.8-1.1,1.8-1.2,2.9c-0.1,0.5-0.1,0.9-0.1,1.4c-0.1,1-0.5,1.5-1.5,1.6c-4.1,0.4-8-0.2-11.6-2.6
	c-2.4-1.6-4.2-3.6-5.9-5.9c-3.6-4.8-6.4-10.1-8.8-15.6c-0.1-0.1-0.1-0.3-0.2-0.4C-40.5-38.3-40.5-38.5-40.5-38.7z"/>
<g>
	<path fill="#FFFFFF" d="M46.1,61.2c-0.4-0.1-0.7-0.2-0.9-0.2c-2.2-0.6-4.4-1.4-6.3-2.7c-1.4-0.9-2.1-2.4-1.7-4
		c0.4-1.5,1.7-2.7,3.4-2.7c0.7,0,1.4,0.2,2,0.6c2.1,1.2,4.3,2,6.8,2.3c3.6,0.4,7-0.4,10-2.3c1.7-1,3.6-0.7,4.7,0.6
		c1.4,1.5,1.1,4-0.5,5.2c-2.1,1.4-4.4,2.4-6.8,3c-0.2,0.1-0.5,0.1-0.8,0.2c0.2,0.2,0.3,0.4,0.5,0.5c2.2,2.2,4.4,4.4,6.5,6.6
		c1.9,1.9,1.2,5.1-1.3,5.9c-1.4,0.5-2.7,0.2-3.7-0.9c-2.2-2.1-4.3-4.3-6.4-6.4c-0.5-0.5-0.5-0.5-0.9,0c-2.1,2.1-4.2,4.3-6.4,6.4
		c-1.5,1.4-3.6,1.5-5,0.2c-1.5-1.4-1.5-3.7-0.1-5.1c2.2-2.2,4.4-4.4,6.6-6.6C45.7,61.6,45.9,61.4,46.1,61.2z"/>
	<path fill="#FFFFFF" d="M38.6,38.6C38.5,32,44,26.2,51,26.2c6.8,0,12.4,5.5,12.4,12.4C63.4,45.5,57.7,51,51,51
		C44.2,51,38.5,45.4,38.6,38.6z M45.8,38.6c-0.1,2.8,2.4,5.3,5.2,5.2c3,0,5.3-2.3,5.3-5.2c0-2.9-2.3-5.2-5.2-5.3
		C48,33.3,45.6,35.9,45.8,38.6z"/>
</g>
</svg>
