<?xml version="1.0" encoding="utf-8"?>
<!-- Generator: Adobe Illustrator 18.1.0, SVG Export Plug-In . SVG Version: 6.00 Build 0)  -->
<svg version="1.1" id="Layer_1" xmlns="http://www.w3.org/2000/svg" xmlns:xlink="http://www.w3.org/1999/xlink" x="0px" y="0px"
	 viewBox="83 -83.9 266.9 266.9" enable-background="new 83 -83.9 266.9 266.9" xml:space="preserve">
<path id="f" fill="#E6E6E6" d="M-144.6,110.7V55.8h18.4l2.8-21.4h-21.2V20.8c0-6.2,1.7-10.4,10.6-10.4l11.3,0V-8.7
	c-2-0.3-8.7-0.8-16.5-0.8c-16.3,0-27.5,10-27.5,28.3v15.8h-18.5v21.4h18.5v54.9L-144.6,110.7L-144.6,110.7z"/>
<path fill="#E6E6E6" d="M-86.7,19.3c0.9-1.4,2.1-2.1,3.8-2.2c0.8,0,1.6-0.1,2.3-0.1c6.4,0,12.7-0.1,19.1-0.1c3.3,0,5.4,1.4,6.9,4.5
	c3.8,7.9,7.7,15.8,11.8,23.6c1.7,3.3,3.9,6.2,6.8,8.6c0.7,0.5,1.4,1,2.2,1.3c1.8,0.7,3.2,0.1,4.1-1.6c1.4-2.5,1.5-5.3,1.8-8.1
	c0.7-6.4,0.7-12.8-0.6-19.1c-0.8-3.8-3.1-5.8-6.7-6.6c-1.9-0.4-2-0.9-0.7-2.3c1.5-1.7,3.4-2.8,5.7-3.1c8.5-1.3,16.9-1.4,25.4-0.1
	c4.2,0.7,5.8,2.1,6.1,7c0.3,3.8,0,7.6-0.1,11.4C1.1,37.5,1,42.6,1,47.7c0,1.5,0.3,3,0.9,4.4c1.1,3,3.4,3.4,5.8,1.4
	c4-3.3,6.6-7.6,9.3-11.8c4.1-6.4,7.5-13.2,10.3-20.3c1.5-3.8,2.2-4.2,6.2-4.2c7.9-0.1,15.7-0.2,23.6-0.2c1.2,0,2.5,0.1,3.6,0.5
	c2.2,0.7,2.9,1.9,2.5,4.2c-0.6,3.5-2.3,6.7-4.3,9.6c-5.1,7.3-10.4,14.5-15.6,21.8c-1.2,1.6-2.4,3.2-3.4,5c-1.7,2.9-1.4,5.6,0.9,8
	c3.4,3.5,7,6.9,10.5,10.4c3.8,3.8,7.4,7.8,10.2,12.4c0.6,1,1,2,1.3,3.1c1.1,3.8-0.8,5.8-4.5,6.2c-3.3,0.3-6.6,0.3-10,0.3
	c-4.3,0.1-8.6,0.3-12.9,0.3c-3.7,0-7-1.3-9.7-3.7c-3-2.6-5.6-5.6-8.4-8.4c-2-2-4-4.1-6.1-6.1c-0.5-0.5-1.2-1-1.9-1.3
	c-1.8-0.9-3.1-0.7-4.7,0.7c-2.7,2.4-3.3,5.7-3.7,9c-0.2,1.5-0.2,2.9-0.3,4.4c-0.2,3-1.6,4.7-4.6,4.9c-12.9,1.1-25.1-0.5-36.2-8.1
	c-7.4-5.1-13.3-11.3-18.6-18.4c-11.3-15.1-20.1-31.7-27.7-49c-0.2-0.4-0.4-0.9-0.6-1.3C-86.7,20.6-86.7,19.9-86.7,19.3z"/>
<g>
	<path fill="#E6E6E6" d="M202.7,80.4c-1.1-0.3-1.8-0.5-2.6-0.7c-6.3-1.7-12.2-4.1-17.8-7.5c-4.1-2.5-5.9-6.8-4.8-11.3
		c1.1-4.2,4.9-7.4,9.5-7.5c1.9,0,4,0.7,5.7,1.7c5.9,3.5,12.2,5.8,19,6.5c10.1,1,19.5-1,28.2-6.4c4.8-2.9,10.1-1.8,13.2,1.7
		c3.8,4.3,3.3,11.3-1.4,14.6c-5.8,4.1-12.3,6.6-19.2,8.4c-0.7,0.2-1.3,0.4-2.2,0.6c0.5,0.6,0.9,1,1.3,1.4
		c6.1,6.1,12.3,12.2,18.4,18.4c5.4,5.4,3.4,14.3-3.7,16.7c-3.9,1.4-7.5,0.5-10.5-2.4c-6.1-6-12.1-12.1-18.1-18.1
		c-1.3-1.3-1.3-1.3-2.6,0c-6,6-11.9,12-17.9,17.9c-4.1,4.1-10.2,4.3-14.2,0.5c-4.2-3.9-4.3-10.3-0.2-14.5
		c6.1-6.2,12.3-12.3,18.5-18.5C201.7,81.5,202,81.1,202.7,80.4z"/>
	<path fill="#E6E6E6" d="M181.6,16.9c-0.3-18.7,15.4-35,35-34.9c19,0.1,34.8,15.6,34.8,34.9c0,19.4-16,34.8-34.8,34.9
		C197.4,51.8,181.4,35.9,181.6,16.9z M201.8,16.8c-0.3,7.9,6.7,14.8,14.6,14.7c8.3-0.1,14.9-6.5,14.9-14.7c0-8.2-6.6-14.8-14.7-14.8
		C208.1,2,201.4,9.3,201.8,16.8z"/>
</g>
</svg>
