<?xml version="1.0" encoding="utf-8"?>
<!-- Generator: Adobe Illustrator 18.1.0, SVG Export Plug-In . SVG Version: 6.00 Build 0)  -->
<svg version="1.1" id="Layer_1" xmlns="http://www.w3.org/2000/svg" xmlns:xlink="http://www.w3.org/1999/xlink" x="0px" y="0px"
	 viewBox="0 0 100 100" enable-background="new 0 0 100 100" xml:space="preserve">
<g>
	<path fill="#FF6027" d="M18.2,81.8C9.8,73.3,5.1,62,5.1,50s4.7-23.3,13.2-31.8l2.1,2.1c-8,8-12.3,18.5-12.3,29.7
		s4.4,21.7,12.3,29.6L18.2,81.8z"/>
</g>
<g>
	<path fill="#FF6027" d="M81.8,81.8l-2.1-2.1C87.6,71.8,92,61.3,92,50.1s-4.4-21.7-12.3-29.6l2.1-2.1C90.2,26.7,94.9,38,94.9,50
		S90.2,73.3,81.8,81.8z"/>
</g>
<g>
	<path fill="#FF6027" d="M50,55.8c-3.2,0-5.8-2.6-5.8-5.8s2.6-5.8,5.8-5.8s5.8,2.6,5.8,5.8S53.2,55.8,50,55.8z M50,46.2
		c-2.1,0-3.8,1.7-3.8,3.8s1.7,3.8,3.8,3.8s3.8-1.7,3.8-3.8S52.1,46.2,50,46.2z"/>
</g>
<g>
	<path fill="#FF6027" d="M27.6,72.4c-6-6-9.3-14-9.3-22.4c0-8.5,3.3-16.4,9.3-22.4l2.1,2.1c-5.4,5.4-8.4,12.6-8.4,20.3
		s3,14.9,8.4,20.3L27.6,72.4z"/>
</g>
<g>
	<path fill="#FF6027" d="M72.4,72.4l-2.1-2.1c5.4-5.4,8.4-12.6,8.4-20.3s-3-14.9-8.4-20.3l2.1-2.1c6,6,9.3,14,9.3,22.4
		C81.7,58.5,78.4,66.4,72.4,72.4z"/>
</g>
<g>
	<path fill="#FF6027" d="M36.3,63.7c-3.7-3.7-5.7-8.5-5.7-13.7s2-10.1,5.7-13.7l2.1,2.1c-3.1,3.1-4.8,7.2-4.8,11.6s1.7,8.5,4.8,11.6
		L36.3,63.7z"/>
</g>
<g>
	<path fill="#FF6027" d="M63.7,63.7l-2.1-2.1c3.1-3.1,4.8-7.2,4.8-11.6s-1.7-8.5-4.8-11.6l2.1-2.1c3.7,3.7,5.7,8.5,5.7,13.7
		S67.4,60.1,63.7,63.7z"/>
</g>
</svg>
