<?xml version="1.0" encoding="utf-8"?>
<!-- Generator: Adobe Illustrator 18.1.0, SVG Export Plug-In . SVG Version: 6.00 Build 0)  -->
<svg version="1.1" id="Layer_1" xmlns="http://www.w3.org/2000/svg" xmlns:xlink="http://www.w3.org/1999/xlink" x="0px" y="0px"
	 viewBox="0 0 100 100" enable-background="new 0 0 100 100" xml:space="preserve">
<g>
	<path fill="#FF6027" d="M45.1,23c-4.3,0-7.7-3.5-7.7-7.7s3.5-7.7,7.7-7.7s7.7,3.5,7.7,7.7S49.3,23,45.1,23z M45.1,9.5
		c-3.2,0-5.7,2.6-5.7,5.7s2.6,5.7,5.7,5.7c3.2,0,5.7-2.6,5.7-5.7S48.2,9.5,45.1,9.5z"/>
</g>
<g>
	
		<rect x="-17" y="48.5" transform="matrix(-0.7071 -0.7071 0.7071 -0.7071 43.1177 117.7958)" fill="#FF6027" width="125.9" height="3"/>
</g>
<g>
	
		<rect x="44.5" y="-13" transform="matrix(-0.7071 -0.7071 0.7071 -0.7071 43.2384 117.8458)" fill="#FF6027" width="3" height="125.9"/>
</g>
<g>
	<path fill="#FF6027" d="M68.9,83h-5.8c-1.7,0-3.4-0.1-5.1-0.2c-0.9-0.1-1.8-0.8-2.3-1.4c-1-1.3-1.8-2.6-2.8-4.2
		c-0.2-0.3-0.2-0.3-0.7-0.3h-2.8c-4,0-8.2-0.1-12.3-0.3c-1.5,0-2.9-0.3-4.5-0.5c-0.2,0-0.4-0.1-0.6-0.1v0.9c0.1,1.5,0.2,3.1,0.2,5.1
		v1h-5.4c-0.6,0-1.2-0.1-1.8-0.1c-0.9-0.1-1.6-0.1-2.4-0.1c-0.2,0-0.4,0-0.6,0c-2.2,0-3.1-1.7-3.7-2.7c-2.2-4-3-8.4-3.6-12.2
		c-0.3-2.1-0.7-3.6-1.8-5.1c-2.3-3-2.7-6.7-2.7-10.2c0.1-4.1,1-7.6,2.6-10.7c-2.2-1.9-2.7-4.4-1.4-6.9c1-1.9,2.4-2.2,3.5-2.2
		c0.6,0,1.3,0.1,2,0.4l2.4,0.9L17,35.2c-1.4,0.5-1.3,1-1.3,1.3c0,0.2,0.2,0.5,0.4,0.8c0.1-0.1,0.3-0.2,0.3-0.2
		c5.4-5.1,12.4-8.2,21.2-9.3c8.2-1.1,15.7-0.2,22.4,2.5c2,0.8,3.8,1.9,5.7,3c0.7,0.4,1.4,0.8,2.1,1.2c2.5-2.5,5.9-5.2,11-5.2h2
		L79.7,31c-1.4,1.8-2,3.8-2.1,6.6c0,0.1,0.1,0.4,0.2,0.4c4.5,2.4,8.1,6,10.5,10.6c0.3,0.5,0.5,0.6,0.8,0.6h0.2c1.1,0,2.1,0,3.2,0
		c0.5,0,1.1,0,1.6,0H95l0.1,0.9c0.4,4.6,0.4,9.1-4,12.6c-6.8,5.4-13.8,8.9-21.6,10.9c-0.9,0.2-0.9,0.4-0.9,0.8c0,0.6,0,1.1,0,1.7
		c0,1.1,0,2.2,0,3.3c0,0.7,0.1,1.5,0.2,2.4L68.9,83z M29.9,73.6l1.2,0.2c0.6,0.1,1.3,0.2,1.9,0.3c1.6,0.3,2.9,0.5,4.2,0.5
		c4.1,0.2,8.2,0.2,12.3,0.3h2.8c0.8,0,1.8,0.2,2.4,1.3c0.9,1.5,1.7,2.8,2.7,4c0.2,0.3,0.7,0.6,0.9,0.6c1.6,0.1,3.3,0.2,4.9,0.2h3.6
		c-0.1-0.6-0.1-1.2-0.1-1.7c0-1.1,0-2.2,0-3.3c0-0.5,0-1.1,0-1.6c-0.1-2.2,1.6-2.6,2.4-2.8c7.5-1.9,14.3-5.4,20.9-10.5
		c3.4-2.7,3.6-6.1,3.3-9.9c-0.2,0-0.5,0-0.7,0c-1,0-2,0-3,0c-0.1,0-0.2,0-0.2,0c-1.2,0-2-0.5-2.5-1.6c-2.3-4.3-5.5-7.6-9.7-9.8
		c-0.7-0.4-1.3-1.4-1.3-2.2c0.1-2.4,0.5-4.3,1.4-6c-3.6,0.6-6.1,2.8-8.1,4.9L68.3,37l-0.7-0.4c-1-0.5-1.9-1.1-2.8-1.6
		c-1.9-1.1-3.6-2.1-5.5-2.9c-6.3-2.6-13.5-3.3-21.4-2.3c-8.4,1.1-15,4-20.1,8.8c-0.4,0.4-1.4,0.9-2,0.9h-0.4L15,39.2
		c-0.8-0.8-1.2-1.6-1.4-2.4c-0.1-0.5,0-1,0.2-1.5c-0.2,0.2-0.4,0.4-0.6,0.8c-1,1.9-0.5,3.5,1.5,4.8l0.8,0.5L15,42.2
		c-1.7,2.9-2.6,6.4-2.8,10.5c0,3.7,0.4,6.6,2.2,9c1.6,2,2,4,2.3,6c0.6,3.6,1.3,7.8,3.4,11.5c0.8,1.4,1.3,1.8,2.2,1.6
		c1-0.1,1.9,0,2.9,0c0.6,0,1.1,0.1,1.6,0.1h3.3c-0.1-1.5-0.1-2.8-0.2-4V73.6z M77.7,51.7c-1,0-1.9-0.4-2.6-1.1c-0.7-0.7-1-1.6-1-2.6
		c0.1-1.9,1.7-3.5,3.6-3.5c2,0,3.6,1.6,3.6,3.7C81.4,50,79.8,51.7,77.7,51.7z M77.8,46.4c-0.8,0-1.6,0.8-1.6,1.6
		c0,0.4,0.1,0.9,0.4,1.2s0.7,0.5,1.2,0.5c0.9,0,1.6-0.7,1.6-1.6C79.4,47.1,78.7,46.4,77.8,46.4z"/>
</g>
</svg>
