<?xml version="1.0" encoding="utf-8"?>
<!-- Generator: Adobe Illustrator 18.1.0, SVG Export Plug-In . SVG Version: 6.00 Build 0)  -->
<svg version="1.1" id="Layer_1" xmlns="http://www.w3.org/2000/svg" xmlns:xlink="http://www.w3.org/1999/xlink" x="0px" y="0px"
	 viewBox="0 0 100 100" enable-background="new 0 0 100 100" xml:space="preserve">
<rect x="14.8" y="15.4" transform="matrix(0.8872 -0.4615 0.4615 0.8872 -17.4528 28.3795)" fill="none" stroke="#FFFFFF" stroke-miterlimit="10" width="68.9" height="68.9"/>
<rect x="14.8" y="15.4" transform="matrix(0.9846 -0.1745 0.1745 0.9846 -7.9488 9.3712)" fill="none" stroke="#FFFFFF" stroke-miterlimit="10" width="68.9" height="68.9"/>
<g>
	<path fill="#FFFFFF" d="M45.3,48.5l0.3-1.8h4.1c1.5,0,2.8-0.5,3.7-1.5c1-1,1.6-2.3,1.8-4c0.2-1.6,0.1-2.9-0.6-3.8S53,36,51.6,36
		c-1.2,0-2.3,0.4-3.3,1.3c-1,0.9-1.6,2-1.9,3.3H39l-0.1-0.2c0.4-3.1,1.9-5.7,4.5-7.6c2.5-1.9,5.5-2.9,8.9-2.9c3.6,0,6.4,1,8.4,2.9
		c2,1.9,2.7,4.6,2.2,8.1c-0.3,1.8-1,3.4-2.3,4.9c-1.2,1.5-2.8,2.7-4.7,3.5c1.8,0.8,3.1,2,4,3.5c0.8,1.6,1.1,3.4,0.7,5.4
		c-0.6,3.7-2.3,6.5-5,8.4c-2.7,2-6,2.9-9.8,2.9c-3.2,0-5.9-1-8.1-2.9c-2.2-1.9-2.9-4.6-2.3-8l0.1-0.2h7.4c-0.3,1.5,0,2.8,0.7,3.7
		c0.8,0.9,1.9,1.4,3.3,1.4c1.5,0,2.8-0.5,3.9-1.5c1.1-1,1.8-2.3,2.1-4c0.3-2.1,0.1-3.6-0.6-4.5c-0.7-0.9-1.9-1.4-3.7-1.4h-4.1
		L45.3,48.5z"/>
</g>
</svg>
