<?xml version="1.0" encoding="utf-8"?>
<!-- Generator: Adobe Illustrator 18.1.0, SVG Export Plug-In . SVG Version: 6.00 Build 0)  -->
<svg version="1.1" id="Layer_1" xmlns="http://www.w3.org/2000/svg" xmlns:xlink="http://www.w3.org/1999/xlink" x="0px" y="0px"
	 viewBox="0 0 100 100" enable-background="new 0 0 100 100" xml:space="preserve">
<rect x="14.8" y="15.4" transform="matrix(-0.8872 0.4615 -0.4615 -0.8872 115.955 71.4)" fill="none" stroke="#FFFFFF" stroke-miterlimit="10" width="68.9" height="68.9"/>
<rect x="14.8" y="15.4" transform="matrix(-0.9847 0.1745 -0.1745 -0.9847 106.4285 90.3606)" fill="none" stroke="#FFFFFF" stroke-miterlimit="10" width="68.9" height="68.9"/>
<g>
	<path fill="#FFFFFF" d="M60.3,69.3H35.6l0.8-5.1l13.7-13.4c2-2.1,3.4-3.8,4.3-5.2c0.9-1.4,1.5-2.7,1.7-4c0.3-1.7,0.1-3-0.5-4
		s-1.6-1.5-3-1.5c-1.5,0-2.8,0.6-3.8,1.8s-1.7,2.8-2,4.8h-7.4l-0.1-0.2c0.5-3.6,2.1-6.6,4.7-9c2.6-2.3,5.8-3.5,9.6-3.5
		c3.6,0,6.3,1,8.2,3.1s2.5,4.8,2,8.2c-0.4,2.4-1.3,4.6-2.8,6.5c-1.4,1.9-3.9,4.5-7.2,7.7L46.5,63l0.1,0.2h14.7L60.3,69.3z"/>
</g>
</svg>
