<?xml version="1.0" encoding="utf-8"?>
<!-- Generator: Adobe Illustrator 18.1.0, SVG Export Plug-In . SVG Version: 6.00 Build 0)  -->
<svg version="1.1" id="Layer_1" xmlns="http://www.w3.org/2000/svg" xmlns:xlink="http://www.w3.org/1999/xlink" x="0px" y="0px"
	 viewBox="0 0 100 100" enable-background="new 0 0 100 100" xml:space="preserve">
<path id="f" fill="#FFFFFF" d="M-55.5,72.5V51.9h6.9l1-8h-7.9v-5.1c0-2.3,0.6-3.9,4-3.9h4.2v-7.2c-0.7-0.1-3.3-0.3-6.2-0.3
	c-6.1,0-10.3,3.7-10.3,10.6V44h-6.9v8h6.9v20.6L-55.5,72.5L-55.5,72.5z"/>
<path fill="#FFFFFF" d="M24,41.3c0.3-0.4,0.7-0.7,1.2-0.7c0.3,0,0.5,0,0.7,0c2,0,4.1,0,6.1,0c1.1,0,1.7,0.4,2.2,1.4
	c1.2,2.5,2.5,5,3.8,7.5c0.5,1.1,1.2,2,2.2,2.7c0.2,0.2,0.4,0.3,0.7,0.4c0.6,0.2,1,0,1.3-0.5c0.4-0.8,0.5-1.7,0.6-2.6
	c0.2-2,0.2-4.1-0.2-6.1c-0.3-1.2-1-1.9-2.1-2.1c-0.6-0.1-0.6-0.3-0.2-0.7c0.5-0.5,1.1-0.9,1.8-1c2.7-0.4,5.4-0.4,8.1,0
	c1.3,0.2,1.9,0.7,1.9,2.2c0.1,1.2,0,2.4,0,3.6c0,1.6-0.1,3.3,0,4.9c0,0.5,0.1,1,0.3,1.4c0.4,1,1.1,1.1,1.9,0.4
	c1.3-1.1,2.1-2.4,3-3.8c1.3-2,2.4-4.2,3.3-6.5c0.5-1.2,0.7-1.3,2-1.3c2.5,0,5-0.1,7.5-0.1c0.4,0,0.8,0,1.1,0.2
	c0.7,0.2,0.9,0.6,0.8,1.3c-0.2,1.1-0.7,2.1-1.4,3.1c-1.6,2.3-3.3,4.6-5,7c-0.4,0.5-0.8,1-1.1,1.6c-0.5,0.9-0.4,1.8,0.3,2.6
	c1.1,1.1,2.2,2.2,3.4,3.3c1.2,1.2,2.4,2.5,3.3,4c0.2,0.3,0.3,0.6,0.4,1c0.4,1.2-0.3,1.9-1.4,2c-1.1,0.1-2.1,0.1-3.2,0.1
	c-1.3,0-2.7,0.1-4.1,0.1c-1.2,0-2.2-0.4-3.1-1.2c-1-0.8-1.8-1.8-2.7-2.7c-0.6-0.6-1.3-1.3-1.9-1.9c-0.2-0.2-0.4-0.3-0.6-0.4
	c-0.6-0.3-1-0.2-1.5,0.2c-0.9,0.8-1.1,1.8-1.2,2.9c-0.1,0.5-0.1,0.9-0.1,1.4c-0.1,1-0.5,1.5-1.5,1.6c-4.1,0.4-8-0.2-11.6-2.6
	c-2.4-1.6-4.2-3.6-5.9-5.9c-3.6-4.8-6.4-10.1-8.8-15.6c-0.1-0.1-0.1-0.3-0.2-0.4C24,41.7,24,41.5,24,41.3z"/>
<g>
	<path fill="#FF6027" d="M229.1-23.6c-0.4-0.1-0.7-0.2-1-0.3c-2.5-0.7-5-1.6-7.2-3.1c-1.6-1-2.4-2.8-1.9-4.6c0.4-1.7,2-3,3.9-3
		c0.8,0,1.6,0.3,2.3,0.7c2.4,1.4,4.9,2.3,7.7,2.6c4.1,0.4,7.9-0.4,11.4-2.6c1.9-1.2,4.1-0.7,5.4,0.7c1.6,1.7,1.3,4.6-0.6,5.9
		c-2.4,1.6-5,2.7-7.8,3.4c-0.3,0.1-0.5,0.1-0.9,0.3c0.2,0.3,0.4,0.4,0.5,0.6c2.5,2.5,5,5,7.5,7.5c2.2,2.2,1.4,5.8-1.5,6.8
		c-1.6,0.6-3.1,0.2-4.3-1c-2.5-2.4-4.9-4.9-7.3-7.3c-0.5-0.5-0.5-0.5-1,0c-2.4,2.4-4.8,4.9-7.3,7.3c-1.7,1.6-4.2,1.7-5.8,0.2
		c-1.7-1.6-1.8-4.2-0.1-5.9c2.5-2.5,5-5,7.5-7.5C228.7-23.2,228.8-23.4,229.1-23.6z"/>
	<path fill="#FF6027" d="M220.5-49.4c-0.1-7.6,6.2-14.2,14.2-14.2c7.7,0,14.1,6.3,14.1,14.2c0,7.9-6.5,14.1-14.1,14.2
		C226.9-35.2,220.4-41.7,220.5-49.4z M228.7-49.4c-0.1,3.2,2.7,6,5.9,6c3.4,0,6-2.7,6-6c0-3.3-2.7-6-6-6
		C231.3-55.5,228.6-52.5,228.7-49.4z"/>
</g>
</svg>
