<?xml version="1.0" encoding="utf-8"?>
<!-- Generator: Adobe Illustrator 18.1.0, SVG Export Plug-In . SVG Version: 6.00 Build 0)  -->
<svg version="1.1" id="Layer_1" xmlns="http://www.w3.org/2000/svg" xmlns:xlink="http://www.w3.org/1999/xlink" x="0px" y="0px"
	 viewBox="0 0 100 100" enable-background="new 0 0 100 100" xml:space="preserve">
<path fill="#FF6027" d="M55.1,5H6.8C3.1,5,0,8,0,11.8v76c0,3.8,3.1,6.8,6.8,6.8h56.8c3.8,0,6.8-3.1,6.8-6.8V19.5L55.1,5z M56,9.9
	l9.7,9.1h-5.8c-2.1,0-3.8-1.7-3.8-3.8V9.9z M63.7,91.6H6.8c-2.1,0-3.8-1.7-3.8-3.8v-76C3,9.7,4.7,8,6.8,8H53v7.3
	c0,3.8,3.1,6.8,6.8,6.8h7.7v65.7C67.5,89.9,65.8,91.6,63.7,91.6z"/>
<line fill="none" stroke="#FF6027" stroke-width="3" stroke-miterlimit="10" x1="10.3" y1="34.3" x2="55.7" y2="34.3"/>
<line fill="none" stroke="#FF6027" stroke-width="3" stroke-miterlimit="10" x1="10.3" y1="46.7" x2="55.7" y2="46.7"/>
<line fill="none" stroke="#FF6027" stroke-width="3" stroke-miterlimit="10" x1="10.3" y1="59" x2="55.7" y2="59"/>
<line fill="none" stroke="#FF6027" stroke-width="3" stroke-miterlimit="10" x1="10.3" y1="71.3" x2="55.7" y2="71.3"/>
</svg>
