<?xml version="1.0" encoding="utf-8"?>
<!-- Generator: Adobe Illustrator 19.0.0, SVG Export Plug-In . SVG Version: 6.00 Build 0)  -->
<svg version="1.1" id="Layer_1" xmlns="http://www.w3.org/2000/svg" xmlns:xlink="http://www.w3.org/1999/xlink" x="0px" y="0px"
	 viewBox="0 0 400 400" style="enable-background:new 0 0 400 400;" xml:space="preserve">
<style type="text/css">
	.st0{fill:url(#XMLID_2_);}
	.st1{fill:url(#XMLID_3_);}
	.st2{fill:url(#XMLID_4_);}
	.st3{fill:url(#XMLID_5_);}
</style>
<linearGradient id="XMLID_2_" gradientUnits="userSpaceOnUse" x1="291.4917" y1="404.5881" x2="162.9917" y2="171.0881">
	<stop  offset="0" style="stop-color:#46B9FF"/>
	<stop  offset="1" style="stop-color:#2A43FF"/>
</linearGradient>
<path id="XMLID_15_" class="st0" d="M188.3,384.1c4.9,3.4,9.1,7.8,12.1,13.1c3-5.2,7.1-9.6,12.1-13c20.8-16.1,35.5-39.1,40.5-66.1
	H319V160.5l-20,8.8V219h-11.1c-2.9-11-10.6-20.5-20.7-25.5l1.3-10.6l-20.8,9.2l-2.1,17.4l4.3-0.5c9.2,0,17.4,6.5,19.3,15.9
	c2.1,10.7-4.8,21.1-15.5,23.2l-11.9,2.4c-4-7.6-8.1-15.2-11.8-23c-3.1-7.8-6.1-15.8-8.7-23.7l-19.1,8.5
	c5.1,15.2,11.7,29.7,19.8,43.3c-8.6,2.6-16.2,7.7-21.7,14.6c-5.5-6.9-13.1-12-21.7-14.6c7.7-13,14.1-26.8,19.1-41.3L171.3,226
	c-0.2,0.5-0.4,1.1-0.6,1.6c-3.7,7.8-7.8,15.4-11.8,23l-11.9-2.4c-4.5-0.9-8.3-3.3-11.1-6.5l-18.5,8.2c5.2,8.2,13.3,14.4,22.8,17.1
	l9.5,2.1c-2.5,9.2-3.9,18.9-3.9,28.9H101v-41l-19,8.7V318h65.8C152.7,345,167.5,368.1,188.3,384.1z M260.2,267
	c13.5-3.8,24.2-14.4,27.7-28.1l0,0.1H299v59h-44.4c0-10-1.4-19.7-3.9-28.9L260.2,267z M210,359.5V318h22.6
	C228.9,334,221,348.1,210,359.5z M231.3,273.6c2.2,7.8,3.5,16.4,3.5,24.4h-24.7C210.1,286,219.3,275.3,231.3,273.6z M190,359.5
	c-11-11.4-18.4-25.5-22.1-41.5H190V359.5z M169.1,273.6c12,1.7,21.2,12.4,21.2,24.4h-24.7C165.6,290,166.9,281.4,169.1,273.6z"/>
<g id="XMLID_25_">
	<linearGradient id="XMLID_3_" gradientUnits="userSpaceOnUse" x1="138.6353" y1="-44.2948" x2="367.1353" y2="202.2052">
		<stop  offset="0" style="stop-color:#CCCC00"/>
		<stop  offset="1" style="stop-color:#E67717"/>
	</linearGradient>
	<path id="XMLID_26_" class="st1" d="M268.4,182.9l6.7-56c2.6-20.6,11.1-39.3,23.9-54.3l0,0v96.6l20-8.8V31.4
		c-5,2.8-10.2,6.1-14.9,9.6c-27.3,20.5-45.8,52-48.9,87.9l-7.6,63.3L268.4,182.9z"/>
	<linearGradient id="XMLID_4_" gradientUnits="userSpaceOnUse" x1="14.2915" y1="70.9691" x2="242.7915" y2="317.4691">
		<stop  offset="0" style="stop-color:#CCCC00"/>
		<stop  offset="1" style="stop-color:#E67717"/>
	</linearGradient>
	<path id="XMLID_29_" class="st2" d="M101,257v-18.2l0.4,0.2h11.2c1,4,2.7,7.6,4.8,11l18.5-8.2c-3.8-4.5-5.7-10.6-4.4-16.8
		c1.9-9.4,10.1-15.9,19.3-15.9l4.3,0.5l-9.7-80.7C142.3,93,123.9,61.4,96.7,41C92,37.5,87,34.2,82,31.4v234.4L101,257z M101,72.7
		l0.2,0c12.8,15,21.5,33.7,24,54.3l7.9,66.5c-10.1,5-17.8,14.5-20.7,25.5H101V72.7z"/>
	<linearGradient id="XMLID_5_" gradientUnits="userSpaceOnUse" x1="85.091" y1="5.3396" x2="313.591" y2="251.8396">
		<stop  offset="0" style="stop-color:#CCCC00"/>
		<stop  offset="1" style="stop-color:#E67717"/>
	</linearGradient>
	<path id="XMLID_30_" class="st3" d="M171.3,226l26.4-11.7c0.9-2.6,1.8-5.2,2.6-7.9c0.6,2,1.2,3.9,1.9,5.9l19.1-8.5
		c-6.8-20.7-11.5-41.9-11-64c0.4-33,4.4-65.8,4.9-98.7c0-15-5.6-29.1-14.8-39.1h-0.1c-9.2,10-14.8,24-14.8,39.1
		c0.5,33,4.6,65.9,4.9,98.8C191.1,170,182.2,198.3,171.3,226z"/>
</g>
</svg>
