<?xml version="1.0" encoding="utf-8"?>
<!-- Generator: Adobe Illustrator 21.0.0, SVG Export Plug-In . SVG Version: 6.00 Build 0)  -->
<svg version="1.1" id="Layer_1" xmlns="http://www.w3.org/2000/svg" xmlns:xlink="http://www.w3.org/1999/xlink" x="0px" y="0px"
	 viewBox="0 0 40 40" style="enable-background:new 0 0 40 40;" xml:space="preserve">
<style type="text/css">
	.st0{fill:#FF6027;}
	.st1{fill:#FF6027;stroke:#FF6027;stroke-miterlimit:10;}
</style>
<g>
	<path class="st0" d="M20,6c7.2,0,13,5.8,13,13s-5.8,13-13,13S7,26.2,7,19S12.8,6,20,6 M20,3C11.2,3,4,10.2,4,19s7.2,16,16,16
		s16-7.2,16-16S28.8,3,20,3L20,3z"/>
</g>
<g>
	<path class="st1" d="M19.5,21.5l0-0.4c-0.1-0.9,0.2-2,1.1-3c0.8-0.9,1.2-1.6,1.2-2.4c0-0.9-0.6-1.5-1.6-1.5c-0.6,0-1.3,0.2-1.7,0.5
		l-0.4-1.1c0.6-0.4,1.6-0.7,2.5-0.7c2,0,2.9,1.2,2.9,2.5c0,1.2-0.7,2-1.5,3c-0.8,0.9-1,1.7-1,2.5l0,0.4H19.5z M19.1,24
		c0-0.6,0.4-1.1,1-1.1s1,0.4,1,1.1c0,0.6-0.4,1.1-1,1.1C19.5,25,19.1,24.6,19.1,24z"/>
</g>
</svg>
