<?xml version="1.0" encoding="utf-8"?>
<!-- Generator: Adobe Illustrator 21.0.0, SVG Export Plug-In . SVG Version: 6.00 Build 0)  -->
<svg version="1.1" id="Layer_1" xmlns="http://www.w3.org/2000/svg" xmlns:xlink="http://www.w3.org/1999/xlink" x="0px" y="0px"
	 viewBox="0 0 40 40" style="enable-background:new 0 0 40 40;" xml:space="preserve">
<style type="text/css">
	.st0{fill:#FF6027;}
</style>
<g>
	<path class="st0" d="M20,5c7.7,0,14,6.3,14,14s-6.3,14-14,14S6,26.7,6,19S12.3,5,20,5 M20,3C11.2,3,4,10.2,4,19s7.2,16,16,16
		s16-7.2,16-16S28.8,3,20,3L20,3z"/>
</g>
<g>
	<path class="st0" d="M22.2,21.7h-3.6v-0.4c0-0.6,0.1-1.1,0.2-1.5c0.1-0.4,0.3-0.7,0.6-1s0.9-0.9,1.9-1.7c0.5-0.4,0.8-0.8,0.8-1.1
		c0-0.3-0.1-0.6-0.3-0.8s-0.5-0.3-0.9-0.3c-0.4,0-0.8,0.1-1.1,0.4c-0.3,0.3-0.5,0.8-0.6,1.6l-3.7-0.5c0.1-1.4,0.6-2.4,1.5-3.3
		c0.9-0.8,2.2-1.2,3.9-1.2c1.4,0,2.5,0.3,3.3,0.9c1.2,0.8,1.7,1.8,1.7,3.1c0,0.5-0.1,1.1-0.4,1.6c-0.3,0.5-0.9,1.1-1.8,1.8
		c-0.6,0.5-1,0.9-1.2,1.2C22.3,20.8,22.2,21.2,22.2,21.7z M18.5,22.6h3.9V26h-3.9V22.6z"/>
</g>
</svg>
