<?xml version="1.0" encoding="utf-8"?>
<!-- Generator: Adobe Illustrator 21.0.0, SVG Export Plug-In . SVG Version: 6.00 Build 0)  -->
<svg version="1.1" id="Layer_1" xmlns="http://www.w3.org/2000/svg" xmlns:xlink="http://www.w3.org/1999/xlink" x="0px" y="0px"
	 viewBox="0 0 40 40" style="enable-background:new 0 0 40 40;" xml:space="preserve">
<style type="text/css">
	.st0{fill:#FF6027;}
</style>
<g>
	<path class="st0" d="M20,3c9.4,0,17,7.6,17,17s-7.6,17-17,17S3,29.4,3,20S10.6,3,20,3 M20,1C9.5,1,1,9.5,1,20s8.5,19,19,19
		s19-8.5,19-19S30.5,1,20,1L20,1z"/>
</g>
<g>
	<path class="st0" d="M18.7,25.2l-0.1-0.8c-0.2-1.6,0.3-3.3,1.8-5c1.3-1.5,2-2.7,2-4c0-1.5-0.9-2.5-2.7-2.5c-1,0-2.2,0.3-2.9,0.9
		l-0.7-1.8c1-0.7,2.6-1.2,4.1-1.2c3.3,0,4.8,2.1,4.8,4.3c0,2-1.1,3.4-2.5,5c-1.3,1.5-1.7,2.8-1.6,4.3l0,0.8H18.7z M18.1,29.3
		c0-1.1,0.7-1.8,1.7-1.8s1.7,0.8,1.7,1.8c0,1-0.7,1.8-1.7,1.8C18.8,31.1,18.1,30.3,18.1,29.3z"/>
</g>
</svg>
