<?xml version="1.0" encoding="utf-8"?>
<!-- Generator: Adobe Illustrator 21.0.0, SVG Export Plug-In . SVG Version: 6.00 Build 0)  -->
<svg version="1.1" id="Layer_1" xmlns="http://www.w3.org/2000/svg" xmlns:xlink="http://www.w3.org/1999/xlink" x="0px" y="0px"
	 viewBox="0 0 40 40" style="enable-background:new 0 0 40 40;" xml:space="preserve">
<style type="text/css">
	.st0{fill:#FF6027;}
	.st1{fill:#FF6027;stroke:#FF6027;stroke-miterlimit:10;}
</style>
<g>
	<path class="st0" d="M20,5c7.7,0,14,6.3,14,14s-6.3,14-14,14S6,26.7,6,19S12.3,5,20,5 M20,3C11.2,3,4,10.2,4,19s7.2,16,16,16
		s16-7.2,16-16S28.8,3,20,3L20,3z"/>
</g>
<g>
	<path class="st1" d="M18.9,22.8l-0.1-0.7c-0.2-1.4,0.3-2.9,1.6-4.5c1.2-1.4,1.8-2.4,1.8-3.5c0-1.3-0.8-2.2-2.5-2.2
		c-0.9,0-2,0.3-2.6,0.8l-0.6-1.6c0.9-0.6,2.3-1,3.7-1c3,0,4.3,1.8,4.3,3.8c0,1.8-1,3-2.2,4.5c-1.1,1.3-1.5,2.5-1.5,3.8l0,0.7H18.9z
		 M18.4,26.4c0-1,0.6-1.6,1.5-1.6s1.5,0.7,1.5,1.6c0,0.9-0.6,1.6-1.5,1.6C19,28,18.4,27.3,18.4,26.4z"/>
</g>
</svg>
