<?xml version="1.0" encoding="utf-8"?>
<!-- Generator: Adobe Illustrator 16.0.0, SVG Export Plug-In . SVG Version: 6.00 Build 0)  -->
<!DOCTYPE svg PUBLIC "-//W3C//DTD SVG 1.1//EN" "http://www.w3.org/Graphics/SVG/1.1/DTD/svg11.dtd">
<svg version="1.1" id="Layer_1" xmlns="http://www.w3.org/2000/svg" xmlns:xlink="http://www.w3.org/1999/xlink" x="0px" y="0px"
	 width="18.188px" height="18.125px" viewBox="0 0 18.188 18.125" enable-background="new 0 0 18.188 18.125" xml:space="preserve">
<path fill="#A7AEAE" d="M17.032,7.837h-0.785c-0.359,0-0.74-0.281-0.848-0.625l-0.45-1.095c-0.17-0.317-0.101-0.784,0.152-1.039
	l0.557-0.556c0.256-0.255,0.256-0.672,0-0.926l-0.925-0.924c-0.255-0.254-0.671-0.254-0.926,0l-0.557,0.556
	c-0.253,0.254-0.722,0.324-1.039,0.154l-1.094-0.451c-0.343-0.106-0.625-0.488-0.625-0.848V1.299c0-0.359-0.295-0.654-0.653-0.654
	H8.532c-0.36,0-0.655,0.295-0.655,0.654v0.785c0,0.36-0.279,0.742-0.623,0.848L6.158,3.383c-0.317,0.17-0.783,0.101-1.037-0.154
	L4.563,2.673c-0.254-0.254-0.67-0.254-0.924,0L2.714,3.597c-0.255,0.254-0.255,0.671,0,0.925L3.27,5.079
	c0.255,0.254,0.324,0.722,0.153,1.039l-0.45,1.096C2.866,7.557,2.484,7.838,2.124,7.838l-0.784,0c-0.359,0-0.654,0.294-0.654,0.654
	v1.308c0,0.36,0.295,0.655,0.654,0.655h0.784c0.36,0,0.741,0.281,0.847,0.624l0.452,1.095c0.169,0.318,0.101,0.786-0.153,1.039
	l-0.558,0.557c-0.253,0.254-0.253,0.67,0,0.926l0.927,0.926c0.254,0.254,0.67,0.254,0.924,0l0.558-0.558
	c0.253-0.253,0.72-0.323,1.036-0.151l1.098,0.45c0.344,0.106,0.623,0.487,0.623,0.849v0.782c0,0.358,0.295,0.653,0.655,0.653H9.84
	c0.358,0,0.653-0.295,0.653-0.653V16.21c0-0.361,0.282-0.742,0.625-0.849l1.096-0.45c0.317-0.172,0.785-0.102,1.04,0.151
	l0.554,0.558c0.255,0.254,0.671,0.254,0.926,0l0.925-0.926c0.256-0.256,0.256-0.672,0-0.926l-0.557-0.557
	c-0.253-0.253-0.322-0.721-0.152-1.039l0.45-1.095c0.107-0.343,0.489-0.624,0.848-0.624h0.785c0.359,0,0.653-0.294,0.653-0.654
	V8.491C17.686,8.131,17.392,7.837,17.032,7.837 M12.457,9.145c0,1.806-1.464,3.269-3.27,3.269s-3.27-1.463-3.27-3.269
	s1.464-3.27,3.27-3.27S12.457,7.339,12.457,9.145"/>
</svg>
